<svg width="22" height="23" viewBox="0 0 22 23" fill="none" xmlns="http://www.w3.org/2000/svg">
<path d="M21.8057 5.07489L11.1495 0.0334892C11.055 -0.0111631 10.945 -0.0111631 10.8506 0.0334892L0.194313 5.07489C0.0754976 5.13108 -1.88853e-08 5.249 -1.88853e-08 5.37829V17.6217C-1.88853e-08 17.751 0.0754976 17.8689 0.194313 17.9251L10.8505 22.9665C10.8977 22.9888 10.9489 23 11 23C11.0511 23 11.1022 22.9888 11.1495 22.9665L21.8057 17.9251C21.9245 17.8689 22 17.751 22 17.6217V5.37833C22 5.24896 21.9245 5.13113 21.8057 5.07489ZM11 0.711045L20.8654 5.37829L18.0056 6.73125C17.9875 6.71772 17.9684 6.70524 17.9474 6.69531L8.14902 2.05982L11 0.711045ZM7.37259 2.44076L17.2237 7.10122L15.206 8.05577L5.35904 3.39719L7.37259 2.44076ZM17.4541 7.74037V11.2688L15.5696 12.1604V8.63198L17.4541 7.74037ZM21.3124 17.4103L11.3438 22.1263V10.6311L13.7216 9.5062C13.8926 9.4253 13.9643 9.22391 13.8817 9.05631C13.7992 8.88879 13.5937 8.81845 13.4227 8.8994L11 10.0456L10.0467 9.59456C9.8757 9.51357 9.6702 9.58392 9.58764 9.75147C9.50508 9.91903 9.57678 10.1205 9.74776 10.2014L10.6562 10.6311V22.1263L0.687592 17.4102V5.91506L8.2786 9.50634C8.32678 9.52916 8.37771 9.53994 8.42781 9.53994C8.55561 9.53994 8.67837 9.46977 8.73764 9.34942C8.8202 9.18187 8.7485 8.98044 8.57752 8.89953L1.13457 5.37829L4.54984 3.76254L14.8772 8.64837C14.8787 8.65044 14.8804 8.65228 14.882 8.6543V12.6972C14.882 12.8132 14.9428 12.9209 15.043 12.9826C15.0986 13.0168 15.1621 13.0341 15.2258 13.0341C15.2768 13.0341 15.3279 13.023 15.3752 13.0006L17.9474 11.7837C18.0662 11.7275 18.1417 11.6097 18.1417 11.4803V7.41513L21.3124 5.9151V17.4103Z" fill="white"/>
<path d="M2.05717 0.773447L0.493358 0.0336295C0.322285 -0.0473646 0.116833 0.0229821 0.0342761 0.190541C-0.0482808 0.358099 0.0234121 0.559529 0.194393 0.640433L1.75821 1.38025C1.80638 1.40307 1.85731 1.41385 1.90741 1.41385C2.03521 1.41385 2.15797 1.34368 2.21724 1.22334C2.29984 1.05573 2.22815 0.854396 2.05717 0.773447Z" transform="translate(1.46765 15.3301)" fill="white"/>
<path d="M3.49421 1.4533L0.493329 0.0335883C0.322302 -0.0473159 0.116804 0.0229427 0.0342471 0.190546C-0.0482639 0.358105 0.0234291 0.559533 0.19441 0.640438L3.19529 2.06015C3.24347 2.08292 3.29439 2.09375 3.3445 2.09375C3.4723 2.09375 3.59506 2.02358 3.65433 1.90324C3.73688 1.73559 3.66519 1.53416 3.49421 1.4533Z" transform="translate(1.46985 13.7322)" fill="white"/>
</svg>
