<svg width="20" height="16" viewBox="0 0 20 16" fill="none" xmlns="http://www.w3.org/2000/svg">
<path d="M20 0.8C20 0.32 19.6667 0 19.1667 0H0.833333C0.333333 0 0 0.32 0 0.8V2.4C0 2.88 0.333333 3.2 0.833333 3.2H19.1667C19.6667 3.2 20 2.88 20 2.4V0.8Z" fill="white"/>
<path d="M20 0.8C20 0.32 19.6667 0 19.1667 0H0.833333C0.333333 0 0 0.32 0 0.8V2.4C0 2.88 0.333333 3.2 0.833333 3.2H19.1667C19.6667 3.2 20 2.88 20 2.4V0.8Z" transform="translate(0 6.40002)" fill="white"/>
<path d="M20 0.8C20 0.32 19.6667 0 19.1667 0H0.833333C0.333333 0 0 0.32 0 0.8V2.4C0 2.88 0.333333 3.2 0.833333 3.2H19.1667C19.6667 3.2 20 2.88 20 2.4V0.8Z" transform="translate(0 12.8)" fill="white"/>
</svg>
