<svg width="19" height="25" viewBox="0 0 19 25" fill="none" xmlns="http://www.w3.org/2000/svg">
<path d="M16.7004 0H2.29959C1.03157 0 -9.83252e-05 1.02359 9.715e-08 2.28165V22.7184C9.715e-08 23.9764 1.03161 25 2.29959 25H16.7003C17.9683 25 19 23.9764 19 22.7184V2.28165C19 1.02359 17.9684 0 16.7004 0ZM18.166 22.7184C18.166 23.5202 17.5086 24.1726 16.7004 24.1726H2.29959C1.49149 24.1726 0.833982 23.5203 0.833982 22.7184V2.28165C0.833982 1.47984 1.49144 0.827492 2.29959 0.827492H16.7004C17.5085 0.827492 18.166 1.47979 18.166 2.28165V22.7184Z" fill="white"/>
<path d="M14.1349 1.1921e-08H0.417016C0.186707 1.1921e-08 1.29155e-07 0.185205 1.29155e-07 0.41377V5.88985C1.29155e-07 6.11842 0.186707 6.30363 0.417016 6.30363H14.1348C14.3652 6.30363 14.5518 6.11837 14.5519 5.88985V0.41377C14.5519 0.185205 14.3652 1.1921e-08 14.1349 1.1921e-08ZM13.7179 5.47608H0.834031V0.827541H13.7179V5.47608H13.7179Z" transform="translate(2.224 2.20679)" fill="white"/>
<path d="M1.9435 1.37091e-07H1.40862C0.631921 1.37091e-07 1.38166e-07 0.627003 1.38166e-07 1.39766V1.92837C1.38166e-07 2.69903 0.631921 3.32603 1.40862 3.32603H1.9435C2.7202 3.32603 3.35202 2.69903 3.35212 1.92837V1.39766C3.35207 0.627003 2.7202 1.37091e-07 1.9435 1.37091e-07ZM2.51809 1.92837C2.51809 2.24273 2.26032 2.49849 1.9435 2.49849H1.40862C1.0918 2.49849 0.834031 2.24273 0.834031 1.92837V1.39766C0.834031 1.0833 1.0918 0.827541 1.40862 0.827541H1.9435C2.26032 0.827541 2.51809 1.0833 2.51809 1.39766V1.92837Z" transform="translate(1.97595 10.2468)" fill="white"/>
<path d="M1.9434 1.37091e-07H1.40852C0.631871 1.37091e-07 3.60434e-08 0.627003 3.60434e-08 1.39766V1.92837C3.60434e-08 2.69903 0.631871 3.32603 1.40852 3.32603H1.9434C2.7201 3.32603 3.35192 2.69903 3.35202 1.92837V1.39766C3.35197 0.627003 2.7201 1.37091e-07 1.9434 1.37091e-07ZM2.51789 1.92837C2.51789 2.24273 2.26012 2.49849 1.9433 2.49849H1.40842C1.0916 2.49849 0.833883 2.24273 0.833883 1.92837V1.39766C0.833883 1.0833 1.0916 0.827541 1.40842 0.827541H1.9433C2.26012 0.827541 2.51789 1.0833 2.51789 1.39766V1.92837Z" transform="translate(5.87476 10.2468)" fill="white"/>
<path d="M1.9434 1.37091e-07H1.40852C0.631872 1.37091e-07 -3.60434e-07 0.627003 -3.60434e-07 1.39766V1.92837C-3.60434e-07 2.69903 0.631872 3.32603 1.40852 3.32603H1.9434C2.7201 3.32603 3.35192 2.69903 3.35192 1.92837V1.39766C3.35197 0.627003 2.7201 1.37091e-07 1.9434 1.37091e-07ZM2.51789 1.92837C2.51789 2.24273 2.26017 2.49849 1.94335 2.49849H1.40847C1.09165 2.49849 0.833933 2.24273 0.833933 1.92837V1.39766C0.833933 1.0833 1.09165 0.827541 1.40847 0.827541H1.94335C2.26017 0.827541 2.51789 1.0833 2.51789 1.39766V1.92837Z" transform="translate(9.77344 10.2468)" fill="white"/>
<path d="M1.9435 1.37091e-07H1.40862C0.631921 1.37091e-07 3.96477e-07 0.627003 3.96477e-07 1.39766V1.92837C3.96477e-07 2.69903 0.631921 3.32603 1.40862 3.32603H1.9435C2.7202 3.32603 3.35202 2.69903 3.35212 1.92837V1.39766C3.35212 0.627003 2.7202 1.37091e-07 1.9435 1.37091e-07ZM2.51809 1.92837C2.51809 2.24273 2.26032 2.49849 1.9435 2.49849H1.40862C1.0918 2.49849 0.834032 2.24273 0.834032 1.92837V1.39766C0.834032 1.0833 1.0918 0.827541 1.40862 0.827541H1.9435C2.26032 0.827541 2.51809 1.0833 2.51809 1.39766V1.92837Z" transform="translate(13.6719 10.2468)" fill="white"/>
<path d="M1.9435 -4.29154e-07H1.40862C0.631921 -4.29154e-07 1.38166e-07 0.627004 1.38166e-07 1.39766V1.92837C1.38166e-07 2.69903 0.631921 3.32603 1.40862 3.32603H1.9435C2.7202 3.32603 3.35202 2.69903 3.35212 1.92837V1.39766C3.35207 0.627004 2.7202 -4.29154e-07 1.9435 -4.29154e-07ZM2.51809 1.92837C2.51809 2.24273 2.26032 2.49849 1.9435 2.49849H1.40862C1.0918 2.49849 0.834031 2.24273 0.834031 1.92837V1.39766C0.834031 1.0833 1.0918 0.82754 1.40862 0.82754H1.9435C2.26032 0.82754 2.51809 1.0833 2.51809 1.39766V1.92837Z" transform="translate(1.97595 14.4111)" fill="white"/>
<path d="M1.9434 -4.29154e-07H1.40852C0.631871 -4.29154e-07 3.60434e-08 0.627004 3.60434e-08 1.39766V1.92837C3.60434e-08 2.69903 0.631871 3.32603 1.40852 3.32603H1.9434C2.7201 3.32603 3.35192 2.69903 3.35202 1.92837V1.39766C3.35197 0.627004 2.7201 -4.29154e-07 1.9434 -4.29154e-07ZM2.51789 1.92837C2.51789 2.24273 2.26012 2.49849 1.9433 2.49849H1.40842C1.0916 2.49849 0.833883 2.24273 0.833883 1.92837V1.39766C0.833883 1.0833 1.0916 0.82754 1.40842 0.82754H1.9433C2.26012 0.82754 2.51789 1.0833 2.51789 1.39766V1.92837Z" transform="translate(5.87476 14.4111)" fill="white"/>
<path d="M1.9434 -4.29154e-07H1.40852C0.631872 -4.29154e-07 -3.60434e-07 0.627004 -3.60434e-07 1.39766V1.92837C-3.60434e-07 2.69903 0.631872 3.32603 1.40852 3.32603H1.9434C2.7201 3.32603 3.35192 2.69903 3.35192 1.92837V1.39766C3.35197 0.627004 2.7201 -4.29154e-07 1.9434 -4.29154e-07ZM2.51789 1.92837C2.51789 2.24273 2.26017 2.49849 1.94335 2.49849H1.40847C1.09165 2.49849 0.833933 2.24273 0.833933 1.92837V1.39766C0.833933 1.0833 1.09165 0.82754 1.40847 0.82754H1.94335C2.26017 0.82754 2.51789 1.0833 2.51789 1.39766V1.92837Z" transform="translate(9.77344 14.4111)" fill="white"/>
<path d="M1.9435 9.53676e-08H1.40862C0.631921 9.53676e-08 1.38166e-07 0.626955 1.38166e-07 1.39756V1.92828C1.38166e-07 2.69893 0.631921 3.32593 1.40862 3.32593H1.9435C2.7202 3.32593 3.35202 2.69893 3.35212 1.92828V1.39756C3.35207 0.626906 2.7202 9.53676e-08 1.9435 9.53676e-08ZM2.51809 1.92828C2.51809 2.24263 2.26032 2.49839 1.9435 2.49839H1.40862C1.0918 2.49839 0.834031 2.24263 0.834031 1.92828V1.39756C0.834031 1.08325 1.0918 0.827492 1.40862 0.827492H1.9435C2.26032 0.827492 2.51809 1.08325 2.51809 1.39756V1.92828Z" transform="translate(1.97595 18.5757)" fill="white"/>
<path d="M1.9434 9.53676e-08H1.40852C0.631871 9.53676e-08 3.60434e-08 0.626955 3.60434e-08 1.39756V1.92828C3.60434e-08 2.69893 0.631871 3.32593 1.40852 3.32593H1.9434C2.7201 3.32593 3.35192 2.69893 3.35202 1.92828V1.39756C3.35197 0.626906 2.7201 9.53676e-08 1.9434 9.53676e-08ZM2.51789 1.92828C2.51789 2.24263 2.26012 2.49839 1.9433 2.49839H1.40842C1.0916 2.49839 0.833883 2.24263 0.833883 1.92828V1.39756C0.833883 1.08325 1.0916 0.827492 1.40842 0.827492H1.9433C2.26012 0.827492 2.51789 1.08325 2.51789 1.39756V1.92828Z" transform="translate(5.87476 18.5757)" fill="white"/>
<path d="M1.9434 9.53676e-08H1.40852C0.631872 9.53676e-08 -3.60434e-07 0.626955 -3.60434e-07 1.39756V1.92828C-3.60434e-07 2.69893 0.631872 3.32593 1.40852 3.32593H1.9434C2.7201 3.32593 3.35192 2.69893 3.35192 1.92828V1.39756C3.35197 0.626906 2.7201 9.53676e-08 1.9434 9.53676e-08ZM2.51789 1.92828C2.51789 2.24263 2.26017 2.49839 1.94335 2.49839H1.40847C1.09165 2.49839 0.833933 2.24263 0.833933 1.92828V1.39756C0.833933 1.08325 1.09165 0.827492 1.40847 0.827492H1.94335C2.26017 0.827492 2.51789 1.08325 2.51789 1.39756V1.92828Z" transform="translate(9.77344 18.5757)" fill="white"/>
<path d="M1.9435 7.15257e-07H1.40862C0.631921 7.15257e-07 3.96477e-07 0.627004 3.96477e-07 1.39766V6.09274C3.96477e-07 6.86339 0.631921 7.4904 1.40862 7.4904H1.9435C2.7202 7.4904 3.35202 6.86339 3.35212 6.09274V1.39766C3.35212 0.627004 2.7202 7.15257e-07 1.9435 7.15257e-07ZM2.51809 6.09279C2.51809 6.40714 2.26032 6.6629 1.9435 6.6629H1.40862C1.0918 6.6629 0.834032 6.40714 0.834032 6.09279V1.39771C0.834032 1.08335 1.0918 0.827589 1.40862 0.827589H1.9435C2.26032 0.827589 2.51809 1.08335 2.51809 1.39771V6.09279Z" transform="translate(13.6719 14.4111)" fill="white"/>
</svg>
