<svg width="21" height="23" viewBox="0 0 21 23" fill="none" xmlns="http://www.w3.org/2000/svg">
<path d="M20.625 1.53333H18V0.383333C18 0.17135 17.8324 0 17.625 0H15C14.7926 0 14.625 0.17135 14.625 0.383333V1.53333H6.375V0.383333C6.375 0.17135 6.20738 0 6 0H3.375C3.16762 0 3 0.17135 3 0.383333V1.53333H0.375C0.167625 1.53333 0 1.70468 0 1.91667V6.13333V22.6167C0 22.8286 0.167625 23 0.375 23H20.625C20.8324 23 21 22.8286 21 22.6167V6.13333V1.91667C21 1.70468 20.8324 1.53333 20.625 1.53333ZM15.375 0.766667H17.25V1.91667V3.06667H15.375V1.91667V0.766667ZM3.75 0.766667H5.625V1.91667V3.06667H3.75V1.91667V0.766667ZM0.75 2.3H3V3.45C3 3.66198 3.16762 3.83333 3.375 3.83333H6C6.20738 3.83333 6.375 3.66198 6.375 3.45V2.3H14.625V3.45C14.625 3.66198 14.7926 3.83333 15 3.83333H17.625C17.8324 3.83333 18 3.66198 18 3.45V2.3H20.25V5.75H0.75V2.3ZM0.75 22.2333V6.51667H20.25V22.2333H0.75Z" fill="white"/>
<path d="M10.125 0H7.5H6.75H4.125H3.375H0V3.45V4.21667V6.9V7.66667V11.1167H3.375H4.125H6.75H7.5H10.125H10.875H14.25V7.66667V6.9V4.21667V3.45V0H10.875H10.125ZM7.5 0.766667H10.125V3.45H7.5V0.766667ZM10.125 6.9H7.5V4.21667H10.125V6.9ZM4.125 4.21667H6.75V6.9H4.125V4.21667ZM4.125 0.766667H6.75V3.45H4.125V0.766667ZM0.75 0.766667H3.375V3.45H0.75V0.766667ZM0.75 4.21667H3.375V6.9H0.75V4.21667ZM3.375 10.35H0.75V7.66667H3.375V10.35ZM6.75 10.35H4.125V7.66667H6.75V10.35ZM10.125 10.35H7.5V7.66667H10.125V10.35ZM13.5 10.35H10.875V7.66667H13.5V10.35ZM13.5 6.9H10.875V4.21667H13.5V6.9ZM13.5 0.766667V3.45H10.875V0.766667H13.5Z" transform="translate(3.375 8.81665)" fill="white"/>
</svg>
