<svg width="46" height="34" viewBox="0 0 46 34" fill="none" xmlns="http://www.w3.org/2000/svg">
<path d="M32.7111 27.2H4.08888C1.83084 27.2 0 25.3263 0 23.0154V4.18461C0 1.8737 1.83084 1.34688e-07 4.08888 1.34688e-07H32.7111C34.9692 1.34688e-07 36.8 1.8737 36.8 4.18461V23.0154C36.8 25.3263 34.9692 27.2 32.7111 27.2Z" transform="translate(0 34) scale(1.25 -1.25)" fill="#DE2910"/>
<path d="M3.83839 7.47273L4.78804 4.67947L7.67688 4.61777L5.37382 2.83197L6.21099 9.23962e-05L3.83848 1.68953L1.46589 -2.02032e-07L2.30305 2.83188L1.28865e-07 4.61768L2.88884 4.67938L3.83839 7.47273Z" transform="translate(4.14636 17.1231) scale(1.25 -1.25)" fill="#FFDE02"/>
<path d="M1.1235 2.1866L1.47101 1.46683L2.24681 1.35172L1.68565 0.790929L1.81745 2.2448e-08L1.12341 0.373489L0.429363 2.2448e-08L0.562242 0.790929L5.26428e-07 1.35172L0.776878 1.46683L1.1235 2.1866Z" transform="translate(15.2068 6.03889) scale(1.25 -1.25)" fill="#FFDE02"/>
<path d="M1.1235 2.1866L1.47101 1.46683L2.24681 1.35172L1.68565 0.79093L1.81745 -1.23464e-07L1.12341 0.373582L0.429363 9.17732e-05L0.562242 0.791022L2.30312e-07 1.35181L0.776879 1.46693L1.1235 2.1866Z" transform="translate(17.7621 11.2697) scale(1.25 -1.25)" fill="#FFDE02"/>
<path d="M1.1235 2.1866L1.47101 1.46683L2.24681 1.35172L1.68565 0.79093L1.81745 -2.69377e-07L1.12341 0.373581L0.429363 9.23288e-05L0.562242 0.791021L2.30312e-07 1.35181L0.776879 1.46693L1.1235 2.1866Z" transform="translate(17.7621 16.5004) scale(1.25 -1.25)" fill="#FFDE02"/>
<path d="M1.1235 2.18752L1.47101 1.46674L2.24681 1.35162L1.68565 0.791942L1.81745 -2.13256e-07L1.12341 0.373489L0.429363 -2.13256e-07L0.562242 0.791942L5.26428e-07 1.35162L0.776878 1.46674L1.1235 2.18752Z" transform="translate(15.2068 21.7316) scale(1.25 -1.25)" fill="#FFDE02"/>
</svg>
