<svg width="39" height="38" viewBox="0 0 39 38" fill="none" xmlns="http://www.w3.org/2000/svg">
<path d="M18.6232 0C8.33859 0 0 8.37173 0 18.7C0 29.0283 8.33859 37.4 18.6232 37.4C28.9079 37.4 37.2465 29.0283 37.2465 18.7C37.2465 8.37173 28.9079 0 18.6232 0ZM18.6232 32.725C10.9214 32.725 4.65581 26.4336 4.65581 18.7C4.65581 10.9664 10.9214 4.675 18.6232 4.675C26.3251 4.675 32.5907 10.9664 32.5907 18.7C32.5907 26.4336 26.3251 32.725 18.6232 32.725ZM24.9587 12.3701L24.9272 12.3385C24.0636 11.4713 22.6621 11.4713 21.7985 12.3385L18.6232 15.5269L15.4468 12.3385C14.5832 11.4713 13.1829 11.4713 12.3181 12.3385L12.2867 12.3701C11.423 13.2373 11.423 14.6433 12.2867 15.5117L15.4631 18.7L12.2867 21.8895C11.4231 22.7566 11.4231 24.1627 12.2867 25.0311L12.3182 25.0626C13.1818 25.9298 14.5832 25.9298 15.4469 25.0626L18.6232 21.8732L21.7985 25.0626C22.6621 25.9298 24.0624 25.9298 24.9272 25.0626L24.9587 25.0311C25.8223 24.1639 25.8223 22.7566 24.9587 21.8895L21.7834 18.7L24.9598 15.5105C25.8235 14.6433 25.8235 13.2373 24.9587 12.3701Z" transform="translate(0.888184)" fill="white"/>
</svg>
