<svg width="50" height="48" viewBox="0 0 50 48" fill="none" xmlns="http://www.w3.org/2000/svg">
<path d="M23.2012 8.44722L10.3864 0.183282C9.9705 -0.0849229 9.4295 -0.0565255 9.04402 0.253716L0.428474 7.18691C-0.181723 7.67794 -0.132197 8.6223 0.526074 9.0468L13.3409 17.3107C13.7568 17.5789 14.2978 17.5505 14.6833 17.2403L23.2988 10.3072C23.909 9.81608 23.8595 8.87172 23.2012 8.44722Z" transform="translate(0 18.5815)" fill="#1587EA"/>
<path d="M0.428434 10.3071L9.04398 17.2402C9.42957 17.5504 9.97046 17.5788 10.3864 17.3106L23.2012 9.04669C23.8594 8.62219 23.909 7.67782 23.2988 7.1868L14.6832 0.253716C14.2976 -0.0565255 13.7567 -0.0849229 13.3409 0.183282L0.526034 8.44722C-0.132125 8.87172 -0.181764 9.81609 0.428434 10.3071Z" transform="translate(26.2727 18.5815)" fill="#1587EA"/>
<path d="M23.2988 7.1868L14.6833 0.253716C14.2977 -0.0565255 13.7568 -0.0849224 13.3409 0.183283L0.526074 8.44722C-0.132197 8.87172 -0.181723 9.81609 0.428474 10.3071L9.04402 17.2402C9.42961 17.5504 9.9705 17.5788 10.3864 17.3106L23.2012 9.04669C23.8595 8.62219 23.909 7.67782 23.2988 7.1868Z" fill="#1587EA"/>
<path d="M23.2012 8.44722L10.3864 0.183283C9.9705 -0.0849224 9.4295 -0.0565255 9.04402 0.253716L0.428473 7.1868C-0.181724 7.67782 -0.132197 8.62219 0.526074 9.04669L13.341 17.3106C13.7569 17.5788 14.2979 17.5504 14.6834 17.2402L23.2989 10.3071C23.909 9.81597 23.8595 8.87161 23.2012 8.44722Z" transform="translate(26.2727)" fill="#1587EA"/>
<path d="M14.8469 0.227359L5.19864 7.92369C4.84893 8.20263 4.36026 8.22723 3.98439 7.98485L1.60632 6.45119C0.91306 6.00411 -3.41183e-07 6.50184 -3.41183e-07 7.32669V8.15579C-3.41183e-07 8.52003 0.190282 8.85789 0.501753 9.04671L14.8658 17.754C15.1977 17.9553 15.6139 17.9553 15.9459 17.754L30.3099 9.04671C30.6213 8.85789 30.8116 8.52014 30.8116 8.15579V7.41579C30.8116 6.59094 29.8984 6.09321 29.2053 6.5403L26.9666 7.98395C26.5901 8.22678 26.1004 8.20163 25.7507 7.92146L16.148 0.2287C15.7679 -0.0757285 15.2275 -0.0762867 14.8469 0.227359Z" transform="translate(9.52539 29.8787)" fill="#1587EA"/>
</svg>
