<svg width="43" height="51" viewBox="0 0 43 51" fill="none" xmlns="http://www.w3.org/2000/svg">
<path d="M41.8286 8.87702C41.4464 6.84035 40.2265 5.83636 39.1245 5.44433C37.9333 5.01723 35.5223 4.5742 32.4934 4.22041C30.0568 3.93356 27.1903 3.95906 25.4577 4.01005C25.2507 2.59809 24.2506 1.30725 23.1358 0.86103C20.161 -0.327822 15.5619 -0.0409681 14.3835 0.287321C13.4471 0.548677 12.4088 1.08095 11.8291 1.90327C11.4405 2.45148 11.1921 3.15587 11.1889 4.13755C11.1889 4.69213 11.2048 6.0021 11.2176 7.16545C11.2335 8.332 11.2462 9.37742 11.2462 9.38379C11.2462 10.4228 10.3958 11.2675 9.34479 11.2707H4.51951C3.49076 11.2707 2.70406 11.4428 2.10528 11.7137C1.50332 11.9846 1.07653 12.3511 0.754845 12.7814C0.111475 13.6388 5.16367e-08 14.7002 5.16367e-08 15.7806C5.16367e-08 15.7806 0.00955483 16.6635 0.22295 18.3719C0.40131 19.6946 1.8473 28.9345 3.22003 31.7457C3.75193 32.8389 4.10546 33.2947 5.15333 33.776C7.48475 34.7672 12.8069 35.8668 15.3007 36.1824C17.7914 36.4979 19.3552 37.1641 20.2853 35.2262C20.2948 35.223 20.4764 34.7449 20.7312 34.0437C21.5401 31.6118 21.6516 29.454 21.6516 27.8923C21.6516 27.7329 21.8873 27.7265 21.8873 27.8923C21.8873 28.9951 21.6771 32.8963 24.6455 33.9417C25.8176 34.3529 28.2509 34.7226 30.7193 35.0095C32.952 35.2644 34.5732 36.1378 34.5732 41.8238C34.5732 45.2852 33.8406 45.7601 30.0122 45.7601C26.9069 45.7601 25.7252 45.8398 25.7252 43.392C25.7252 41.4159 27.6967 41.623 29.1587 41.623C29.8116 41.623 29.337 41.1418 29.337 39.921C29.337 38.7067 30.1014 38.0055 29.3784 37.9864C24.327 37.8493 21.3554 37.98 21.3554 44.2494C21.3522 49.945 23.5467 51 30.7161 51C36.3377 51 38.3187 50.8183 40.6406 43.6693C41.0992 42.2573 42.2108 37.9513 42.8828 30.7258C43.3096 26.152 42.4815 12.3575 41.8286 8.87702ZM32.0283 24.1249C31.334 24.0994 30.6652 24.144 30.0441 24.2429C30.2193 22.8405 30.8021 21.1161 32.8724 21.1863C35.1656 21.2659 35.4841 23.4142 35.4936 24.8707C34.5286 24.4437 33.331 24.1695 32.0283 24.1249ZM4.29656 9.88101H4.29975H9.12184C9.39893 9.88101 9.62188 9.6579 9.62188 9.38698C9.62188 9.38698 9.56455 5.28178 9.56455 4.14392V4.13117C9.56455 3.19411 9.76202 2.37817 10.1092 1.69291L10.2748 1.38693C10.2557 1.39012 10.2366 1.39968 10.2207 1.41562L0.850395 10.6364C0.831285 10.6523 0.82173 10.6715 0.81536 10.6906C1.00964 10.595 1.274 10.4643 1.31222 10.4483C2.12439 10.0786 3.11174 9.88101 4.29656 9.88101Z" fill="#4CAF50"/>
</svg>
