<svg width="16" height="15" viewBox="0 0 16 15" fill="none" xmlns="http://www.w3.org/2000/svg">
<path d="M7.45624 15L7.53196 10.2245L5.48511 10.2134L5.54261 7.90353H7.55496V6.23377C7.55496 5.99972 7.58446 5.76072 7.62574 5.53041C7.66265 5.32442 7.71543 5.12076 7.78897 4.92412C7.85526 4.7469 7.93857 4.57542 8.04132 4.41523C8.13757 4.26518 8.25078 4.12536 8.37963 4.0003C8.50663 3.87701 8.64848 3.76837 8.80084 3.67586C8.95861 3.58002 9.12724 3.50148 9.30169 3.43842C9.58865 3.33468 9.89286 3.26833 10.1975 3.23772C10.5125 3.20599 10.8307 3.22224 11.1467 3.22876C11.2772 3.23143 11.4078 3.23416 11.5384 3.23577C11.781 3.23878 12.0237 3.24156 12.2663 3.24412C12.2757 3.24423 12.285 3.24434 12.2943 3.24445L12.2351 5.38219C12.2351 5.38219 11.9534 5.37106 10.9645 5.38219C9.99279 5.39332 9.98129 6.09462 9.98129 6.12801L9.96979 7.90353L12.2351 7.94249L11.9074 10.2134H9.98129L9.96829 15H14.0463C14.8454 15 15.4951 14.3711 15.4951 13.5974V1.4026C15.4951 0.628942 14.8454 -2.12321e-07 14.0463 -2.12321e-07H1.4489C0.649704 -2.12321e-07 -2.19329e-07 0.628942 -2.19329e-07 1.4026V13.5974C-2.19329e-07 14.3711 0.649704 15 1.4489 15H7.45624Z" fill="#59A8E4"/>
</svg>
