<svg width="18" height="22" viewBox="0 0 18 22" fill="none" xmlns="http://www.w3.org/2000/svg">
<path d="M14.3174 7.33333L17.9429 1.661C18.0153 1.5477 18.019 1.40543 17.953 1.28883C17.8867 1.17223 17.761 1.1 17.6249 1.1H0.749997V0.366667C0.749997 0.1639 0.582372 0 0.374998 0C0.167624 0 0 0.1639 0 0.366667V1.46667V12.1V13.2V21.6333C0 21.8361 0.167624 22 0.374998 22C0.582372 22 0.749997 21.8361 0.749997 21.6333V13.5667H17.6249C17.761 13.5667 17.8867 13.4944 17.953 13.3775C18.019 13.2612 18.0153 13.1186 17.9429 13.0053L14.3174 7.33333ZM0.749997 12.8333V12.1V1.83333H16.948L13.5569 7.139C13.4808 7.2578 13.4808 7.40887 13.5569 7.52803L16.948 12.8333H0.749997Z" fill="white"/>
</svg>
