<svg width="44" height="39" viewBox="0 0 44 39" fill="none" xmlns="http://www.w3.org/2000/svg">
<path d="M43.9984 7.58558C43.9868 7.32943 43.8358 7.08939 43.6061 6.97552L29.9214 0.0759675C29.5969 -0.0875525 29.2027 0.0205076 29.005 0.327097L19.7585 14.6717L14.9964 7.22873C14.928 7.12171 14.8293 7.03254 14.7163 6.97552L1.03168 0.0759675C0.565726 -0.158957 8.59373e-05 0.1946 8.59373e-05 0.718869V7.61851C8.59373e-05 8.01548 0.319085 8.33724 0.71285 8.33724C1.10653 8.33724 1.42561 8.01557 1.42561 7.61851V1.88171L13.6847 8.06254V37.1201L1.42553 30.9393V10.6851C1.42553 10.2881 1.10653 9.96637 0.712764 9.96637C0.319085 9.96637 0 10.288 0 10.6851V31.3835C0 31.6558 0.152539 31.9046 0.394023 32.0263L14.0787 38.9259C14.5451 39.1611 15.1102 38.8067 15.1102 38.2831V24.8802L42.9685 38.9259C43.4349 39.1611 44 38.8067 44 38.2831V7.61843C44 7.60733 43.9989 7.59659 43.9984 7.58558ZM15.1102 23.2731V10.0581L27.5916 29.5661L15.1102 23.2731ZM42.5746 37.1202L30.6001 31.0828L39.9308 14.8787C40.1284 14.5355 40.0126 14.0956 39.6722 13.8963C39.3319 13.6972 38.8957 13.8137 38.6979 14.1571L29.5706 30.0078L20.6053 15.9952L29.8533 1.64869L42.2898 7.91904L40.0222 11.8572C39.8247 12.2005 39.9404 12.6403 40.2808 12.8396C40.6209 13.0387 41.0573 12.9222 41.2551 12.5789L42.5746 10.2874V37.1202Z" fill="#6580C5"/>
</svg>
