<svg width="48" height="47" viewBox="0 0 48 47" fill="none" xmlns="http://www.w3.org/2000/svg">
<path d="M44.7806 11.9976C42.6344 8.30671 39.7233 5.38466 36.0465 3.23075C32.3691 1.07673 28.3545 -2.51449e-08 23.9998 -2.51449e-08C19.6456 -2.51449e-08 15.6297 1.07706 11.9531 3.23075C8.27593 5.38455 5.36493 8.30671 3.21878 11.9976C1.07296 15.6883 0 19.7186 0 24.0884C0 29.3375 1.52577 34.0576 4.57807 38.25C7.63005 42.4426 11.5728 45.3438 16.4059 46.9538C16.9684 47.0586 17.3849 46.9849 17.6557 46.7345C17.9266 46.4838 18.0619 46.1698 18.0619 45.7939C18.0619 45.7312 18.0565 45.1668 18.0461 44.1002C18.0354 43.0336 18.0303 42.1031 18.0303 41.3091L17.3116 41.4339C16.8533 41.5182 16.2752 41.5539 15.5772 41.5438C14.8795 41.534 14.1553 41.4606 13.4054 41.3242C12.6552 41.1889 11.9575 40.8753 11.3116 40.3839C10.666 39.8925 10.2078 39.2492 9.93687 38.4552L9.62439 37.7334C9.4161 37.2529 9.08818 36.7191 8.64019 36.1339C8.1922 35.5483 7.73917 35.1513 7.2809 34.9422L7.0621 34.785C6.91631 34.6805 6.78103 34.5545 6.65592 34.4083C6.53093 34.262 6.43735 34.1157 6.37485 33.9692C6.31224 33.8225 6.36412 33.7022 6.53104 33.6078C6.69795 33.5135 6.9996 33.4677 7.4373 33.4677L8.06206 33.5614C8.47875 33.6452 8.99416 33.8956 9.60895 34.314C10.2234 34.7321 10.7285 35.2757 11.1244 35.9445C11.6038 36.8021 12.1814 37.4556 12.8588 37.9052C13.5357 38.3549 14.2181 38.5793 14.9055 38.5793C15.5928 38.5793 16.1865 38.527 16.6867 38.423C17.1864 38.3184 17.6551 38.1612 18.0928 37.9522C18.2803 36.5506 18.7908 35.4739 19.6239 34.7213C18.4365 34.596 17.369 34.4074 16.4208 34.1566C15.4732 33.9054 14.4939 33.4979 13.4837 32.9327C12.4729 32.3684 11.6344 31.6676 10.9679 30.8316C10.3014 29.9951 9.75431 28.8969 9.32755 27.5381C8.90058 26.1787 8.68703 24.6105 8.68703 22.8332C8.68703 20.3026 9.51012 18.1491 11.156 16.3716C10.385 14.4691 10.4578 12.3363 11.3745 9.97339C11.9787 9.78498 12.8747 9.92637 14.062 10.3967C15.2496 10.8672 16.1191 11.2703 16.6714 11.6045C17.2237 11.9386 17.6662 12.2217 17.9996 12.4513C19.9374 11.9078 21.9373 11.636 23.9996 11.636C26.0619 11.636 28.0621 11.9078 30.0001 12.4513L31.1875 11.6988C31.9996 11.1968 32.9585 10.7367 34.062 10.3185C35.1661 9.90044 36.0105 9.78531 36.5941 9.97372C37.5312 12.3367 37.6147 14.4694 36.8435 16.3719C38.4892 18.1495 39.3126 20.3035 39.3126 22.8336C39.3126 24.6109 39.0983 26.184 38.672 27.5538C38.2451 28.9239 37.6934 30.0209 37.0165 30.8473C36.3389 31.6735 35.495 32.3688 34.4848 32.9331C33.4743 33.4978 32.4947 33.9053 31.5471 34.1565C30.599 34.4076 29.5315 34.5964 28.3442 34.7218C29.4271 35.6624 29.9687 37.1472 29.9687 39.1754V45.793C29.9687 46.169 30.0989 46.4828 30.3596 46.7337C30.62 46.984 31.0312 47.0577 31.5938 46.9528C36.4276 45.343 40.3703 42.4418 43.4221 38.2491C46.4737 34.0567 48 29.3366 48 24.0875C47.9989 19.7183 46.9254 15.6883 44.7806 11.9976Z" fill="black"/>
</svg>
