<svg width="36" height="36" viewBox="0 0 36 36" fill="none" xmlns="http://www.w3.org/2000/svg">
<path d="M33.5854 9.01458C31.9758 6.24139 29.7925 4.04586 27.0348 2.42748C24.2768 0.809024 21.2658 -1.88931e-08 17.9998 -1.88931e-08C14.7342 -1.88931e-08 11.7223 0.809271 8.96482 2.42748C6.20695 4.04578 4.0237 6.24139 2.41409 9.01458C0.804723 11.7877 0 14.8159 0 18.0992C0 22.0432 1.14433 25.5898 3.43356 28.7398C5.72254 31.89 8.67956 34.0699 12.3044 35.2796C12.7263 35.3583 13.0387 35.3029 13.2418 35.1148C13.4449 34.9264 13.5464 34.6905 13.5464 34.4081C13.5464 34.3609 13.5424 33.9369 13.5346 33.1355C13.5265 32.334 13.5228 31.6349 13.5228 31.0383L12.9837 31.1321C12.64 31.1954 12.2064 31.2222 11.6829 31.2146C11.1597 31.2073 10.6165 31.1522 10.0541 31.0496C9.49143 30.948 8.96811 30.7124 8.4837 30.3431C7.99954 29.9739 7.65583 29.4906 7.45266 28.894L7.21829 28.3517C7.06207 27.9906 6.81613 27.5895 6.48014 27.1499C6.14415 26.7098 5.80438 26.4115 5.46067 26.2544L5.29658 26.1363C5.18723 26.0578 5.08577 25.9631 4.99194 25.8533C4.8982 25.7434 4.82801 25.6334 4.78114 25.5233C4.73418 25.4131 4.77309 25.3228 4.89828 25.2518C5.02346 25.1809 5.2497 25.1465 5.57798 25.1465L6.04654 25.2169C6.35906 25.2799 6.74562 25.468 7.20672 25.7824C7.66757 26.0966 8.04641 26.505 8.34333 27.0076C8.70288 27.6519 9.13606 28.1429 9.64412 28.4808C10.1518 28.8186 10.6636 28.9873 11.1791 28.9873C11.6946 28.9873 12.1399 28.948 12.515 28.8698C12.8898 28.7912 13.2414 28.6731 13.5696 28.5161C13.7103 27.463 14.0931 26.654 14.7179 26.0884C13.8274 25.9943 13.0268 25.8526 12.3156 25.6642C11.6049 25.4755 10.8704 25.1692 10.1128 24.7446C9.35467 24.3206 8.72578 23.794 8.22594 23.1658C7.72601 22.5374 7.31573 21.7122 6.99566 20.6912C6.67543 19.6698 6.51528 18.4916 6.51528 17.1562C6.51528 15.2547 7.13259 13.6367 8.36697 12.3011C7.78873 10.8716 7.84332 9.26906 8.5309 7.49368C8.98403 7.35212 9.65602 7.45836 10.5465 7.81173C11.4372 8.16527 12.0893 8.46813 12.5035 8.71923C12.9178 8.97025 13.2496 9.18297 13.4997 9.35549C14.9531 8.94714 16.4529 8.74292 17.9997 8.74292C19.5464 8.74292 21.0466 8.94714 22.5001 9.35549L23.3907 8.79014C23.9997 8.41291 24.7189 8.06721 25.5465 7.75296C26.3746 7.43888 27.0078 7.35237 27.4455 7.49393C28.1484 9.26939 28.211 10.8718 27.6326 12.3014C28.8669 13.6369 29.4845 15.2554 29.4845 17.1564C29.4845 18.4918 29.3237 19.6738 29.004 20.703C28.6839 21.7325 28.27 22.5567 27.7624 23.1777C27.2542 23.7985 26.6213 24.3209 25.8636 24.7449C25.1057 25.1691 24.371 25.4754 23.6603 25.6641C22.9493 25.8528 22.1486 25.9946 21.2581 26.0888C22.0703 26.7956 22.4765 27.9112 22.4765 29.4351V34.4074C22.4765 34.6899 22.5742 34.9257 22.7697 35.1142C22.965 35.3023 23.2734 35.3577 23.6954 35.2788C27.3207 34.0693 30.2777 31.8894 32.5666 28.7391C34.8553 25.5891 36 22.0426 36 18.0986C35.9992 14.8157 35.194 11.7877 33.5854 9.01458Z" fill="#657CB7"/>
</svg>
