<svg width="27" height="26" viewBox="0 0 27 26" fill="none" xmlns="http://www.w3.org/2000/svg">
<path d="M25.1891 6.63695C23.9819 4.5952 22.3444 2.97875 20.2761 1.78723C18.2076 0.59564 15.9494 -1.39099e-08 13.4999 -1.39099e-08C11.0507 -1.39099e-08 8.79172 0.595823 6.72362 1.78723C4.65521 2.97869 3.01777 4.5952 1.81056 6.63695C0.603542 8.67863 0 10.9082 0 13.3255C0 16.2292 0.858245 18.8404 2.57517 21.1595C4.2919 23.4789 6.50967 25.0838 9.22829 25.9744C9.54475 26.0324 9.77901 25.9916 9.93133 25.8531C10.0837 25.7145 10.1598 25.5408 10.1598 25.3328C10.1598 25.2981 10.1568 24.9859 10.1509 24.3959C10.1449 23.8058 10.1421 23.2911 10.1421 22.8518L9.73776 22.9209C9.47998 22.9675 9.15478 22.9872 8.76217 22.9817C8.36974 22.9762 7.96235 22.9357 7.54055 22.8602C7.11857 22.7854 6.72608 22.6119 6.36277 22.34C5.99965 22.0682 5.74187 21.7123 5.58949 21.2731L5.41372 20.8738C5.29656 20.608 5.1121 20.3127 4.86011 19.989C4.60811 19.665 4.35329 19.4454 4.0955 19.3297L3.97243 19.2428C3.89042 19.185 3.81433 19.1153 3.74396 19.0344C3.67365 18.9535 3.62101 18.8725 3.58585 18.7915C3.55064 18.7103 3.57982 18.6438 3.67371 18.5916C3.7676 18.5394 3.93728 18.514 4.18348 18.514L4.53491 18.5659C4.76929 18.6122 5.05921 18.7507 5.40504 18.9822C5.75067 19.2135 6.03481 19.5142 6.25749 19.8842C6.52716 20.3586 6.85205 20.7201 7.23309 20.9688C7.61382 21.2176 7.99769 21.3417 8.38433 21.3417C8.77097 21.3417 9.10491 21.3128 9.38627 21.2553C9.66733 21.1974 9.93102 21.1104 10.1772 20.9949C10.2827 20.2195 10.5698 19.6239 11.0384 19.2075C10.3705 19.1382 9.77008 19.0339 9.23672 18.8951C8.70368 18.7562 8.15284 18.5307 7.58457 18.2181C7.016 17.9059 6.54434 17.5182 6.16945 17.0558C5.79451 16.593 5.4868 15.9855 5.24675 15.2338C5.00657 14.4818 4.88646 13.6143 4.88646 12.6312C4.88646 11.2312 5.34944 10.04 6.27523 9.05664C5.84155 8.00417 5.88249 6.82431 6.39817 5.5172C6.73803 5.41297 7.24201 5.49118 7.90989 5.75136C8.5779 6.01165 9.06699 6.23463 9.37765 6.4195C9.68832 6.60431 9.93724 6.76092 10.1248 6.88794C11.2148 6.58729 12.3397 6.43694 13.4998 6.43694C14.6598 6.43694 15.7849 6.58729 16.875 6.88794L17.543 6.4717C17.9998 6.19397 18.5391 5.93945 19.1599 5.70808C19.781 5.47684 20.2559 5.41315 20.5842 5.51738C21.1113 6.82455 21.1583 8.00435 20.7245 9.05682C21.6502 10.0401 22.1134 11.2317 22.1134 12.6313C22.1134 13.6145 21.9928 14.4847 21.753 15.2425C21.5129 16.0004 21.2025 16.6073 20.8218 17.0645C20.4406 17.5215 19.966 17.9062 19.3977 18.2183C18.8293 18.5307 18.2783 18.7561 17.7452 18.8951C17.2119 19.034 16.6115 19.1384 15.9436 19.2078C16.5527 19.7282 16.8574 20.5495 16.8574 21.6715V25.3323C16.8574 25.5403 16.9306 25.7139 17.0773 25.8527C17.2238 25.9912 17.4551 26.0319 17.7715 25.9739C20.4905 25.0834 22.7083 23.4784 24.425 21.1591C26.1414 18.8399 27 16.2288 27 13.325C26.9994 10.908 26.3955 8.67863 25.1891 6.63695Z" transform="translate(0 -0.000488281)" fill="white"/>
</svg>
