<svg width="15" height="15" viewBox="0 0 15 15" fill="none" xmlns="http://www.w3.org/2000/svg">
<path d="M14.6163 6.09317C12.2551 6.09317 9.89394 6.09317 7.52969 6.09317C7.52969 7.07 7.52969 8.04376 7.52969 9.02059C8.89782 9.02059 10.266 9.02059 11.6341 9.02059C11.4742 9.95455 10.9177 10.8119 10.1276 11.3356C9.62954 11.6694 9.05769 11.8837 8.47047 11.9878C7.8771 12.0889 7.26529 12.1011 6.67499 11.9817C6.0724 11.8623 5.50055 11.6112 4.99941 11.2621C4.20006 10.7017 3.58824 9.88105 3.27465 8.95935C2.95491 8.02233 2.95183 6.97507 3.27465 6.03805C3.49908 5.37662 3.87417 4.76726 4.36608 4.27119C4.97482 3.65263 5.76495 3.20862 6.6135 3.02795C7.34215 2.87178 8.11076 2.9024 8.82403 3.11675C9.4297 3.30048 9.98925 3.6312 10.4473 4.06602C10.9116 3.6067 11.3697 3.14738 11.8339 2.68805C12.0768 2.44002 12.332 2.20423 12.5656 1.95007C11.8647 1.30396 11.0407 0.783392 10.143 0.455742C8.52581 -0.138316 6.69959 -0.150565 5.07013 0.412871C3.23161 1.03755 1.66978 2.40327 0.802789 4.13339C0.501493 4.72745 0.280132 5.36438 0.147931 6.01968C-0.18411 7.64568 0.0464739 9.38192 0.802789 10.8671C1.29163 11.8347 1.99568 12.6952 2.8473 13.3719C3.65281 14.0119 4.59051 14.4835 5.58356 14.7468C6.83794 15.0806 8.17225 15.0745 9.43585 14.7866C10.5765 14.5263 11.6556 13.9813 12.5195 13.1882C13.4296 12.3553 14.0813 11.256 14.4257 10.074C14.7977 8.78786 14.85 7.41296 14.6163 6.09317Z" fill="#59A8E4"/>
</svg>
