<svg width="42" height="28" viewBox="0 0 42 28" fill="none" xmlns="http://www.w3.org/2000/svg">
<path d="M38.2378 27.5825H3.09556C1.38588 27.5825 0 26.171 0 24.4296V3.15295C0 1.41166 1.38588 8.02988e-08 3.09556 8.02988e-08H38.2378C39.9474 8.02988e-08 41.3333 1.41157 41.3333 3.15295V24.4297C41.3333 26.171 39.9475 27.5825 38.2378 27.5825Z" fill="#FF4B55"/>
<path d="M5.97558 5.70469C5.07723 5.71415 4.06844 5.4211 3.18453 4.42871C3.12358 4.3603 3.13206 4.2525 3.2014 4.19272L3.20173 4.19248C3.26889 4.13451 3.36819 4.14347 3.42753 4.20983C4.7749 5.71678 6.44486 5.453 7.44259 5.08882C7.07398 5.10552 6.61084 5.07731 6.31295 4.87791C5.06851 4.04472 5.63216 3.15832 4.80565 2.08684C3.9844 1.02218 3.2454 1.04824 2.08177 1.2279C0.929766 1.40568 0.562771 0.545018 0.448539 0.0673677C0.428115 -0.0182295 0.310896 -0.0235751 0.280865 0.0588975C-1.15498 4.01018 3.16241 8.89934 7.59501 5.38393C7.15754 5.54797 6.59421 5.69828 5.97558 5.70469ZM2.74101 4.36384C2.71582 4.43439 2.61692 4.43159 2.59553 4.35973L2.4302 3.80478L1.86114 3.78447C1.78743 3.78184 1.7595 3.68523 1.81997 3.6423L2.28707 3.31069L2.13021 2.75311C2.10986 2.681 2.19148 2.62402 2.25025 2.66924L2.70427 3.0192L3.17638 2.6949C3.23749 2.65288 3.31588 2.7143 3.29174 2.78526L3.10525 3.33322L3.55395 3.69032C3.61199 3.73662 3.57889 3.83151 3.50519 3.83003L2.93589 3.81868L2.74101 4.36384Z" transform="translate(12.1462 9.1499)" fill="#F5F5F5"/>
<path d="M1.10688 2.45355C1.8202 1.89729 2.79993 1.5156 4.0916 1.76967C4.18064 1.78719 4.23723 1.87862 4.21713 1.96874L4.21705 1.96907C4.19743 2.05656 4.11267 2.11001 4.02612 2.09307C2.06069 1.71014 0.879625 2.94139 0.295711 3.84218C0.580846 3.60364 0.968105 3.34331 1.32388 3.32103C2.81026 3.22754 2.88106 4.28127 4.17346 4.63377C5.45745 4.98397 6.03346 4.51183 6.85899 3.65725C7.67613 2.81123 8.47664 3.27581 8.84921 3.58827C8.91589 3.64426 9.01285 3.577 8.98831 3.49264C7.81079 -0.5463 1.4771 -1.82138 3.84331e-07 3.69927C0.253248 3.30105 0.61564 2.83664 1.10688 2.45355ZM4.48475 1.55079C4.46335 1.47892 4.54417 1.42071 4.60358 1.46511L5.06269 1.80816L5.53003 1.47679C5.5905 1.43386 5.66977 1.49414 5.64676 1.56543L5.46827 2.11617L5.92205 2.46646C5.98082 2.51185 5.94901 2.60715 5.87539 2.6069L5.30601 2.60419L5.11912 3.15206C5.0949 3.22302 4.996 3.2217 4.97356 3.15025L4.80016 2.59785L4.23085 2.58618C4.15715 2.58462 4.12776 2.48849 4.18766 2.44467L4.64992 2.10598L4.48475 1.55079Z" transform="translate(20.1951 9.77539)" fill="#F5F5F5"/>
<path d="M1.67724 7.51256C1.32687 6.6699 1.20901 5.60828 1.77371 4.39808C1.81262 4.31462 1.91377 4.28165 1.99434 4.32416L1.99466 4.32433C2.07289 4.36552 2.10244 4.46255 2.0649 4.54362C1.20925 6.38614 2.08435 7.85881 2.79453 8.65994C2.63904 8.31903 2.48857 7.87213 2.55622 7.5156C2.83917 6.0264 3.85846 6.22005 4.5168 5.03369C5.17095 3.85498 4.86612 3.16889 4.26025 2.14106C3.66043 1.1236 4.30231 0.450415 4.69255 0.161144C4.76238 0.109342 4.72274 -0.0030613 4.63644 6.32817e-05C0.502546 0.151112 -2.29375 6.07821 2.58463 8.91566C2.26939 8.56628 1.91854 8.09282 1.67724 7.51256ZM1.66392 3.95563C1.59021 3.95875 1.55517 3.86452 1.61225 3.81707L2.05319 3.45018L1.85508 2.90642C1.82941 2.83604 1.90651 2.77289 1.96851 2.81351L2.44739 3.12728L2.89383 2.76738C2.95163 2.72076 3.03438 2.77593 3.01557 2.84862L2.87058 3.4094L3.34454 3.73066C3.40589 3.77226 3.37998 3.86945 3.30643 3.87373L2.73794 3.90654L2.58447 4.46502C2.56461 4.53729 2.4658 4.54223 2.43908 4.47225L2.23273 3.93178L1.66392 3.95563Z" transform="translate(17.2456 5.09717)" fill="#F5F5F5"/>
<path d="M1.54952 0.689317C2.29206 1.20438 2.95557 2.0319 3.12438 3.36076C3.13609 3.45244 3.06851 3.5359 2.97818 3.5447H2.9777C2.89002 3.55325 2.81357 3.48796 2.80211 3.39907C2.54176 1.37821 1.02308 0.622879 -2.56221e-07 0.341091C0.311857 0.541969 0.676107 0.83461 0.808745 1.17165C1.36271 2.57961 0.402919 2.97914 0.480177 4.33957C0.55695 5.6912 1.178 6.09987 2.23394 6.62973C3.27914 7.15425 3.09758 8.07411 2.92336 8.53269C2.8922 8.61483 2.98528 8.68735 3.05616 8.63711C6.45115 6.22986 5.65031 -0.295174 0.0405257 0.0103778C0.49156 0.130181 1.03826 0.334594 1.54952 0.689317ZM3.45206 3.67214C3.51237 3.62889 3.59188 3.68876 3.5692 3.76013L3.39361 4.31178L3.84925 4.65968C3.90818 4.70466 3.87702 4.80029 3.80331 4.80037L3.23393 4.8007L3.04995 5.34955C3.02613 5.4206 2.92716 5.41986 2.90439 5.34848L2.72808 4.797L2.15878 4.78836C2.08499 4.78729 2.0552 4.69117 2.11478 4.6471L2.57526 4.30586L2.40734 3.75166C2.38563 3.67987 2.46603 3.62125 2.52569 3.6654L2.98657 4.00598L3.45206 3.67214Z" transform="translate(20.5942 13.832)" fill="#F5F5F5"/>
<path d="M7.00961 1.67042C6.75378 2.54761 6.18181 3.44321 4.99033 4.01131C4.90823 4.05053 4.80958 4.01041 4.7739 3.92547L4.77374 3.92514C4.7391 3.84267 4.77688 3.74868 4.85648 3.71044C6.66724 2.84288 6.91161 1.13965 6.86373 0.0612595C6.77081 0.425027 6.6079 0.8674 6.3331 1.0987C5.18489 2.06461 4.51912 1.25485 3.27032 1.74385C2.02951 2.22964 1.83632 2.9566 1.66203 4.1423C1.48959 5.31599 0.573881 5.41968 0.0921704 5.39016C0.00595162 5.38489 -0.0336857 5.4973 0.0348534 5.55083C3.31924 8.11216 9.17808 5.34987 7.18536 -9.4351e-07C7.21071 0.473785 7.18576 1.06631 7.00961 1.67042ZM4.79876 4.42384C4.85753 4.46923 4.82581 4.56469 4.7521 4.56428L4.1828 4.56173L3.99615 5.10968C3.97201 5.18064 3.87304 5.17933 3.8506 5.10788L3.67695 4.55548L3.10765 4.54397C3.03394 4.54249 3.00448 4.44637 3.06438 4.40246L3.52647 4.06361L3.3613 3.50858C3.33991 3.43672 3.42063 3.3785 3.48005 3.4229L3.93924 3.76578L4.4065 3.43425C4.46696 3.39133 4.54624 3.4516 4.52323 3.52289L4.34498 4.07364L4.79876 4.42384Z" transform="translate(13.2771 14.4912)" fill="#F5F5F5"/>
</svg>
