<svg width="43" height="43" viewBox="0 0 43 43" fill="none" xmlns="http://www.w3.org/2000/svg">
<g filter="url(#filter0_d)">
<path fill-rule="evenodd" clip-rule="evenodd" d="M18.9015 0C8.46472 0 0 8.46151 0 18.9014C0 29.3396 8.46472 37.8027 18.9015 37.8027C29.3398 37.8027 37.803 29.3396 37.803 18.9014C37.803 8.46151 29.3398 0 18.9015 0ZM23.9797 28.1489C24.2758 28.3583 24.657 28.4103 24.9972 28.2827C25.3359 28.1536 25.5863 27.8622 25.6619 27.5094C26.4605 23.7574 28.3979 14.2595 29.124 10.8478C29.1792 10.5895 29.0878 10.3217 28.8862 10.15C28.683 9.97834 28.4026 9.92952 28.1538 10.0209C24.301 11.4479 12.4356 15.8992 7.5858 17.6933C7.27865 17.8082 7.07861 18.1028 7.08806 18.4288C7.09908 18.7533 7.31803 19.0352 7.63305 19.1298C9.8083 19.7803 12.6624 20.686 12.6624 20.686C12.6624 20.686 13.9966 24.7151 14.6912 26.7628C14.7794 27.0211 14.981 27.2227 15.2456 27.292C15.5118 27.3613 15.7938 27.2888 15.9922 27.1014C17.109 26.0477 18.8353 24.4174 18.8353 24.4174C18.8353 24.4174 22.1179 26.8226 23.9797 28.1489ZM13.8627 20.1756L15.4063 25.2648L15.7497 22.0421C15.7497 22.0421 21.7084 16.6663 25.1075 13.6027C25.2067 13.5129 25.2193 13.3617 25.1374 13.2562C25.0555 13.1506 24.9043 13.1254 24.7924 13.1979C20.8546 15.7118 13.8627 20.1756 13.8627 20.1756Z" transform="translate(2.56006 2.51025)" fill="#F1F8FF"/>
</g>
<defs>
<filter id="filter0_d" x="0.560059" y="0.510254" width="41.803" height="41.8027" filterUnits="userSpaceOnUse" color-interpolation-filters="sRGB">
<feFlood flood-opacity="0" result="BackgroundImageFix"/>
<feColorMatrix in="SourceAlpha" type="matrix" values="0 0 0 0 0 0 0 0 0 0 0 0 0 0 0 0 0 0 255 0"/>
<feOffset/>
<feGaussianBlur stdDeviation="1"/>
<feColorMatrix type="matrix" values="0 0 0 0 0.94902 0 0 0 0 0.94902 0 0 0 0 0.94902 0 0 0 0.69 0"/>
<feBlend mode="normal" in2="BackgroundImageFix" result="effect1_dropShadow"/>
<feBlend mode="normal" in="SourceGraphic" in2="effect1_dropShadow" result="shape"/>
</filter>
</defs>
</svg>
