<svg width="16" height="15" viewBox="0 0 16 15" fill="none" xmlns="http://www.w3.org/2000/svg">
<path d="M7.74915 1.35088C9.81874 1.35088 10.0644 1.36003 10.8803 1.39358C11.6363 1.42712 12.0458 1.5491 12.3199 1.65278C12.6821 1.79 12.9404 1.95162 13.2114 2.21386C13.4823 2.47611 13.6492 2.72616 13.791 3.07684C13.8981 3.34214 14.0241 3.73856 14.0587 4.47042C14.0965 5.26022 14.1028 5.49807 14.1028 7.50152C14.1028 9.50498 14.0934 9.74284 14.0587 10.5326C14.0241 11.2645 13.8981 11.6609 13.791 11.9262C13.6492 12.2769 13.4823 12.5269 13.2114 12.7892C12.9404 13.0514 12.6821 13.2131 12.3199 13.3503C12.0458 13.454 11.6363 13.5759 10.8803 13.6095C10.0644 13.6461 9.81874 13.6522 7.74915 13.6522C5.67956 13.6522 5.43385 13.643 4.61799 13.6095C3.86197 13.5759 3.45247 13.454 3.17841 13.3503C2.81615 13.2131 2.55785 13.0514 2.28694 12.7892C2.01604 12.5269 1.84909 12.2769 1.70733 11.9262C1.60023 11.6609 1.47423 11.2645 1.43958 10.5326C1.40178 9.74284 1.39548 9.50498 1.39548 7.50152C1.39548 5.49807 1.40493 5.26022 1.43958 4.47042C1.47423 3.73856 1.60023 3.34214 1.70733 3.07684C1.84909 2.72616 2.01604 2.47611 2.28694 2.21386C2.55785 1.95162 2.81615 1.79 3.17841 1.65278C3.45247 1.5491 3.86197 1.42712 4.61799 1.39358C5.437 1.35698 5.67956 1.35088 7.74915 1.35088ZM7.74915 5.81627e-09C5.64491 5.81627e-09 5.3803 0.00914821 4.55499 0.045741C3.72967 0.0823338 3.16581 0.210409 2.6744 0.393373C2.16409 0.585485 1.73253 0.841634 1.30097 1.2594C0.869417 1.67412 0.604812 2.09494 0.406358 2.58589C0.214204 3.0616 0.0850516 3.60744 0.0472509 4.40638C0.00945017 5.20533 -6.00826e-09 5.46148 -6.00826e-09 7.49848C-6.00826e-09 9.53547 0.00945017 9.79163 0.0472509 10.5906C0.0850516 11.3895 0.217354 11.9354 0.406358 12.4111C0.604812 12.9051 0.869417 13.3228 1.30097 13.7406C1.73253 14.1584 2.16409 14.4145 2.6744 14.6066C3.16581 14.7926 3.72967 14.9177 4.55499 14.9543C5.3803 14.9909 5.64491 15 7.74915 15C9.85339 15 10.118 14.9909 10.9433 14.9543C11.7686 14.9177 12.3325 14.7896 12.8239 14.6066C13.3342 14.4145 13.7658 14.1584 14.1973 13.7406C14.6289 13.3228 14.8935 12.9051 15.0919 12.4111C15.2841 11.9354 15.4132 11.3895 15.451 10.5906C15.4888 9.79163 15.4983 9.53547 15.4983 7.49848C15.4983 5.46148 15.4888 5.20533 15.451 4.40638C15.4132 3.60744 15.2809 3.0616 15.0919 2.58589C14.8935 2.09494 14.6289 1.67412 14.2005 1.2594C13.7689 0.841634 13.3374 0.585485 12.827 0.393373C12.3356 0.207359 11.7718 0.0823338 10.9465 0.045741C10.118 0.00914821 9.85339 5.81627e-09 7.74915 5.81627e-09Z" fill="#59A8E4"/>
<path d="M3.97853 0C1.77978 0 -1.92264e-07 1.72596 -1.92264e-07 3.85139C-1.92264e-07 5.97682 1.78293 7.70279 3.97853 7.70279C6.17412 7.70279 7.95705 5.97682 7.95705 3.85139C7.95705 1.72596 6.17727 0 3.97853 0ZM3.97853 6.3519C2.55155 6.3519 1.39548 5.23277 1.39548 3.85139C1.39548 2.47001 2.55155 1.35088 3.97853 1.35088C5.4055 1.35088 6.56158 2.47001 6.56158 3.85139C6.56158 5.23277 5.4055 6.3519 3.97853 6.3519Z" transform="translate(3.77063 3.65015)" fill="#59A8E4"/>
<path d="M0.929268 1.79915C1.44249 1.79915 1.85854 1.39639 1.85854 0.899573C1.85854 0.402753 1.44249 0 0.929268 0C0.416048 0 0 0.402753 0 0.899573C0 1.39639 0.416048 1.79915 0.929268 1.79915Z" transform="translate(10.9591 2.59814)" fill="#59A8E4"/>
</svg>
