<svg width="38" height="37" viewBox="0 0 38 37" fill="none" xmlns="http://www.w3.org/2000/svg">
<rect width="37.2465" height="36.55" rx="18.275" fill="#36D7B7"/>
<path d="M13.7346 9.48493C13.5929 9.26715 13.3496 9.13771 13.0894 9.13771H7.69963V0.76178C7.69963 0.402377 7.44554 0.0917061 7.08982 0.0170842C6.72794 -0.0590606 6.37376 0.12521 6.22592 0.452632L0.066227 14.1587C-0.0400277 14.3932 -0.0169287 14.6673 0.124744 14.8821C0.266417 15.0983 0.509726 15.2293 0.769973 15.2293H6.15971V23.6052C6.15971 23.9646 6.41379 24.2753 6.76952 24.3499C6.82341 24.3606 6.87731 24.3667 6.92967 24.3667C7.22841 24.3667 7.50714 24.1946 7.63341 23.9144L13.7931 10.2083C13.8978 9.97226 13.8778 9.70118 13.7346 9.48493Z" transform="translate(12.1267 6.09167)" fill="#708EB2"/>
</svg>
