<svg width="45" height="33" viewBox="0 0 45 33" fill="none" xmlns="http://www.w3.org/2000/svg">
<path d="M36 4.06153C36 1.8185 34.209 1.30727e-07 32 1.30727e-07H3.99999C1.79104 1.30727e-07 0 1.8185 0 4.06153V22.3385C0 24.5815 1.79104 26.4 3.99999 26.4H32C34.2091 26.4 36 24.5814 36 22.3385V4.06153Z" transform="translate(0 33) scale(1.25 -1.25)" fill="#EEEEEE"/>
<path d="M13.9999 7.10766C13.9999 3.18222 10.8659 -2.17878e-08 6.99996 -2.17878e-08C3.134 -2.17878e-08 -1.55568e-07 3.18222 -1.55568e-07 7.10766C-1.55568e-07 11.0331 3.134 14.2153 6.99996 14.2153C10.8659 14.2153 13.9999 11.0331 13.9999 7.10766Z" transform="translate(13.75 25.3846) scale(1.25 -1.25)" fill="#ED1B2F"/>
</svg>
