<svg width="45" height="29" viewBox="0 0 45 29" fill="none" xmlns="http://www.w3.org/2000/svg">
<path d="M41.6298 1.31914e-07H3.37017C1.50882 1.31914e-07 0 1.4841 0 3.31497V25.685C0 27.5158 1.50882 29 3.37017 29H41.6298C43.4911 29 45 27.5159 45 25.685V3.31497C45 1.4841 43.4912 1.31914e-07 41.6298 1.31914e-07Z" fill="#F5F5F5"/>
<path d="M11.4089 1.28022C7.84377 -1.05759 3.0285 -0.101791 0.653349 3.39878C-0.538009 5.14605 -0.0537314 7.52025 1.72869 8.68915C3.50979 9.85806 5.9158 9.38336 7.10417 7.62996C8.29254 5.87664 10.7001 5.40782 12.4811 6.57059C14.2651 7.73949 14.7449 10.1137 13.5549 11.861C15.9316 8.35459 14.9709 3.61811 11.4089 1.28022Z" transform="translate(15.3987 6.8683)" fill="#FF4B55"/>
<path d="M1.30372 -4.85443e-07C0.112359 1.74726 0.596636 4.12147 2.37906 5.29037C4.16016 6.45928 6.56617 5.98457 7.75454 4.23117C8.94291 2.47786 11.3505 2.00904 13.1315 3.1718C14.9155 4.34071 15.3953 6.71491 14.2053 8.46217C11.8317 11.9749 7.01801 12.9186 3.45291 10.5808C-0.10895 8.24328 -1.07293 3.5068 1.30372 -4.85443e-07Z" transform="translate(14.748 10.2672)" fill="#41479B"/>
<path d="M1.07007 0.170234L2.4794 2.25388C2.59778 2.42894 2.54988 2.6653 2.37226 2.78227L2.0149 3.01767C1.83657 3.13507 1.59522 3.08787 1.47621 2.9122L0.0651281 0.829078C-0.0536121 0.653842 -0.00544611 0.417052 0.17262 0.300084L0.531741 0.0642457C0.710159 -0.0528954 0.951243 -0.00534755 1.07007 0.170234Z" transform="translate(29.6846 5.09583)" fill="#464655"/>
<path d="M1.0687 0.169692L2.4826 2.25204C2.60196 2.42788 2.55326 2.66579 2.37388 2.78233L2.01493 3.01566C1.83687 3.1315 1.5971 3.08387 1.47854 2.90932L0.0654315 0.829139C-0.0535725 0.65399 -0.00575903 0.417028 0.172395 0.299887L0.530548 0.0643941C0.708614 -0.0527471 0.949612 -0.00563106 1.0687 0.169692Z" transform="translate(31.8604 8.30898)" fill="#464655"/>
<path d="M1.07259 0.169982L4.66108 5.4671C4.7799 5.64242 4.73165 5.87929 4.55341 5.99617L4.19288 6.23253C4.01464 6.34941 3.77373 6.30204 3.65491 6.12672L0.0651895 0.82995C-0.0537265 0.654541 -0.00538759 0.417492 0.17303 0.30061L0.534699 0.0638209C0.71303 -0.0526287 0.953762 -0.00534023 1.07259 0.169982Z" transform="translate(31.1909 4.1055)" fill="#464655"/>
<path d="M1.07113 0.170322L2.48354 2.25803C2.60254 2.43387 2.55367 2.67126 2.37446 2.78771L2.01525 3.02113C1.83701 3.13698 1.59716 3.08934 1.47868 2.91445L0.0652237 0.829511C-0.0536923 0.654188 -0.00544043 0.417226 0.172802 0.300258L0.533065 0.0640733C0.711308 -0.0528085 0.952304 -0.00534655 1.07113 0.170322Z" transform="translate(32.6974 3.11618)" fill="#464655"/>
<path d="M1.06895 0.1702L2.47916 2.25358C2.59781 2.42873 2.54973 2.66526 2.37193 2.78223L2.01378 3.01772C1.83545 3.13495 1.5941 3.08766 1.47527 2.91199L0.065066 0.828611C-0.0534984 0.653461 -0.00551006 0.416931 0.172293 0.299963L0.530445 0.0644701C0.708863 -0.052844 0.950036 -0.00564108 1.06895 0.1702Z" transform="translate(34.8752 6.33574)" fill="#464655"/>
<path d="M1.07013 0.169913L4.65818 5.46132C4.77701 5.63656 4.72902 5.87343 4.55078 5.9904L4.19148 6.22641C4.01324 6.34347 3.77233 6.29618 3.65333 6.12077L0.0652793 0.829361C-0.0536367 0.654124 -0.0055605 0.417249 0.172682 0.300281L0.532066 0.0642713C0.710221 -0.0527834 0.951216 -0.00549598 1.07013 0.169913Z" transform="translate(10.5947 17.6136)" fill="#464655"/>
<path d="M1.06979 0.169934L2.4785 2.24831C2.59724 2.42345 2.54934 2.6599 2.37153 2.77704L2.01417 3.01236C1.83602 3.12967 1.59484 3.08256 1.47575 2.90715L0.0653725 0.829298C-0.0536314 0.654061 -0.00564301 0.417098 0.172599 0.300044L0.53172 0.0642056C0.709874 -0.0527627 0.950871 -0.00547466 1.06979 0.169934Z" transform="translate(9.08875 18.6033)" fill="#464655"/>
<path d="M1.07027 0.170133L2.48057 2.25377C2.59922 2.42892 2.55114 2.66554 2.37316 2.78242L2.01475 3.01818C1.83642 3.1354 1.59533 3.08811 1.47633 2.91253L0.0651555 0.829322C-0.0535847 0.654086 -0.00550857 0.417295 0.172558 0.300413L0.531856 0.0644037C0.710274 -0.0529103 0.951357 -0.00544937 1.07027 0.170133Z" transform="translate(11.2653 21.8168)" fill="#464655"/>
<path d="M1.07113 0.169934L4.6569 5.4616C4.77564 5.63675 4.72756 5.87345 4.54976 5.99051L4.19143 6.22617C4.01318 6.3434 3.7721 6.29611 3.6531 6.12071L0.0652246 0.829727C-0.0536914 0.654405 -0.00543951 0.417444 0.172803 0.300476L0.53333 0.0641182C0.711396 -0.0527636 0.952305 -0.00538854 1.07113 0.169934Z" transform="translate(7.58105 19.5928)" fill="#464655"/>
<path d="M0.0651094 5.46579L3.65263 0.170056C3.77155 -0.00543988 4.01254 -0.052815 4.19087 0.0642397L4.55008 0.300164C4.72823 0.417132 4.77622 0.654009 4.65748 0.829245L1.06856 6.12204C0.949904 6.29693 0.709875 6.34447 0.531721 6.22846L0.173918 5.99547C-0.00520322 5.87894 -0.0538945 5.64145 0.0651094 5.46579Z" transform="translate(10.5954 5.09557)" fill="#464655"/>
<path d="M0.0651564 5.46678L3.65329 0.170012C3.77221 -0.00548349 4.01338 -0.0528587 4.19171 0.0643689L4.55004 0.300034C4.72793 0.417002 4.77592 0.653619 4.65727 0.828768L1.0701 6.1258C0.951182 6.30129 0.710185 6.34875 0.531855 6.23161L0.172559 5.99569C-0.0055077 5.87881 -0.0535839 5.64202 0.0651564 5.46678Z" transform="translate(9.0885 4.10619)" fill="#464655"/>
<path d="M0.0649831 5.4722L3.65347 0.170154C3.77239 -0.00542834 4.01365 -0.0528899 4.19198 0.0643377L4.55031 0.300003C4.72811 0.416971 4.77618 0.653329 4.65771 0.828565L1.07142 6.13138C0.952679 6.30688 0.711595 6.35452 0.533265 6.23755L0.172913 6.00119C-0.00541687 5.88431 -0.0535813 5.64752 0.0649831 5.4722Z" transform="translate(7.58057 3.11766)" fill="#464655"/>
<path d="M0.0653826 2.24758L1.47576 0.169732C1.59486 -0.00567757 1.83602 -0.0527943 2.01418 0.0645198L2.37154 0.299838C2.54935 0.416893 2.59716 0.653423 2.47842 0.828572L1.06971 2.90686C0.950793 3.08226 0.709795 3.12964 0.531553 3.01258L0.172432 2.77675C-0.00563416 2.65978 -0.0536213 2.4229 0.0653826 2.24758Z" transform="translate(29.6851 20.8273)" fill="#464655"/>
<path d="M0.064992 2.25833L1.47766 0.170196C1.5964 -0.00529973 1.83748 -0.0528469 2.01581 0.0641213L2.37581 0.300131C2.55414 0.417099 2.6023 0.654236 2.4833 0.829559L1.06765 2.91441C0.948907 3.08922 0.708877 3.13668 0.530723 3.02049L0.173713 2.78776C-0.00514474 2.67105 -0.0538361 2.43392 0.064992 2.25833Z" transform="translate(31.8606 17.6138)" fill="#464655"/>
<path d="M0.0651318 2.25335L1.47639 0.170055C1.59522 -0.00535435 1.83613 -0.0528165 2.01446 0.0641517L2.37516 0.300768C2.55331 0.41765 2.60148 0.654352 2.48283 0.829761L1.07245 2.91323C0.953706 3.08864 0.712974 3.13619 0.534556 3.01939L0.172884 2.7826C-0.005358 2.66581 -0.0536963 2.42876 0.0651318 2.25335Z" transform="translate(31.1909 21.8166)" fill="#464655"/>
<path d="M0.0654697 2.24805L1.47752 0.16959C1.59652 -0.00547378 1.83717 -0.0526761 2.01532 0.0641192L2.37585 0.300477C2.55427 0.417445 2.60234 0.65458 2.48316 0.82999L1.07111 2.90853C0.952197 3.0836 0.711464 3.1308 0.533397 3.014L0.172782 2.77764C-0.0056358 2.66059 -0.05371 2.42346 0.0654697 2.24805Z" transform="translate(33.3683 18.6029)" fill="#464655"/>
<path d="M0.065468 2.24926L1.47831 0.169595C1.59696 -0.00494961 1.83664 -0.052496 2.01471 0.0632619L2.37383 0.296678C2.55312 0.413214 2.6019 0.650869 2.48272 0.82671L1.07094 2.90914C0.952109 3.08446 0.7112 3.13175 0.532958 3.01496L0.172783 2.77877C-0.0056348 2.66172 -0.0537117 2.42458 0.065468 2.24926Z" transform="translate(32.6976 22.8047)" fill="#464655"/>
<path d="M0.0650918 2.2523L1.47442 0.170133C1.59333 -0.00544948 1.8346 -0.0529104 2.01293 0.0644036L2.37082 0.299722C2.54879 0.416777 2.5967 0.653568 2.47787 0.828717L1.06731 2.90812C0.948745 3.0831 0.708451 3.13056 0.530297 3.01437L0.173461 2.78182C-0.00522056 2.66519 -0.0538242 2.42789 0.0650918 2.2523Z" transform="translate(34.8765 19.5933)" fill="#464655"/>
</svg>
