<svg width="392" height="393" viewBox="0 0 392 393" fill="none" xmlns="http://www.w3.org/2000/svg">
<g opacity="0.89">
<path d="M118.541 13.7294C115.93 11.025 113.732 8.856 112.078 7.26382L111.037 8.34466C109.26 6.63384 108.117 5.59796 107.774 5.28974C106.387 4.04518 104.827 3.10853 103.179 2.47766L103.715 1.07679C99.9641 -0.358985 95.7956 -0.358931 92.0445 1.07695L92.5807 2.47782C90.9327 3.10868 89.3723 4.04529 87.985 5.28974C87.6419 5.59796 86.4997 6.63384 84.7219 8.34465L83.6818 7.26381C82.0272 8.85599 79.8298 11.025 77.2183 13.7293L78.2974 14.7713C76.4277 16.7075 74.344 18.9203 72.0943 21.3941L70.9846 20.3849C69.0725 22.4875 67.0413 24.7774 64.9202 27.2453L66.0578 28.223C64.1828 30.4047 62.2371 32.726 60.2411 35.1806L59.0773 34.2343C57.2245 36.5129 55.3284 38.9057 53.4053 41.4076L54.5946 42.3217C52.8033 44.6522 50.9885 47.0775 49.1633 49.5936L47.9492 48.7128C46.1997 51.1245 44.4407 53.6192 42.6835 56.1933L43.9224 57.039C42.2463 59.4944 40.5721 62.022 38.9098 64.6188L37.6465 63.81C36.0324 66.3314 34.4294 68.9177 32.8465 71.5662L34.1341 72.3357C32.6006 74.9015 31.0863 77.5254 29.5995 80.205L28.2879 79.4772C26.8263 82.1112 25.3911 84.7988 23.9899 87.5376L25.3253 88.2208C23.9586 90.8922 22.6247 93.6122 21.331 96.3783L19.9723 95.7428C18.6921 98.4802 17.4507 101.263 16.2554 104.089L17.6369 104.673C16.4667 107.439 15.341 110.246 14.2666 113.093L12.8632 112.563C11.795 115.393 10.7768 118.261 9.81516 121.166L11.2392 121.637C10.2946 124.491 9.4052 127.379 8.57712 130.301L7.13397 129.891C6.30822 132.805 5.54286 135.751 4.844 138.728L6.30431 139.071C5.6176 141.997 4.99571 144.952 4.44447 147.935L2.96944 147.662C2.41921 150.64 1.93871 153.646 1.53367 156.678L3.02046 156.876C2.62297 159.851 2.29884 162.852 2.05352 165.875L0.558435 165.754C0.313762 168.769 0.146783 171.808 0.0628791 174.868L1.56232 174.91C1.52099 176.417 1.5 177.93 1.5 179.447C1.5 180.965 1.52099 182.477 1.56232 183.985L0.0628794 184.026C0.146784 187.086 0.313764 190.125 0.558439 193.14L2.05353 193.019C2.29884 196.043 2.62298 199.043 3.02047 202.018L1.53368 202.217C1.93872 205.248 2.41923 208.254 2.96946 211.232L4.44449 210.959C4.99574 213.942 5.61764 216.898 6.30435 219.823L4.84404 220.166C5.54291 223.143 6.30827 226.09 7.13403 229.003L8.57718 228.594C9.40526 231.515 10.2947 234.403 11.2392 237.257L9.81524 237.728C10.7769 240.633 11.7951 243.502 12.8633 246.331L14.2667 245.802C15.3412 248.648 16.4668 251.455 17.637 254.221L16.2555 254.806C17.4509 257.631 18.6922 260.414 19.9724 263.151L21.3312 262.516C22.6249 265.282 23.9588 268.002 25.3255 270.673L23.9901 271.357C25.3913 274.095 26.8265 276.783 28.288 279.417L29.5997 278.689C31.0865 281.369 32.6008 283.993 34.1343 286.558L32.8467 287.328C34.4296 289.976 36.0327 292.563 37.6467 295.084L38.91 294.275C40.5723 296.872 42.2465 299.4 43.9226 301.855L42.6837 302.701C44.4409 305.275 46.1999 307.77 47.9494 310.181L49.1636 309.3C50.9888 311.816 52.8035 314.242 54.5948 316.572L53.4056 317.486C55.3287 319.988 57.2247 322.381 59.0776 324.66L60.2414 323.713C62.2374 326.168 64.183 328.489 66.0581 330.671L64.9205 331.649C67.0416 334.117 69.0727 336.407 70.9848 338.509L72.0945 337.5C74.3442 339.974 76.4279 342.187 78.2976 344.123L77.2185 345.165C79.8299 347.869 82.0274 350.038 83.6819 351.63L84.722 350.549C86.4998 352.26 87.642 353.296 87.9852 353.605C88.6699 354.219 89.3965 354.758 90.1545 355.222L89.3713 356.502C91.0999 357.56 92.9806 358.267 94.9126 358.623L95.1844 357.148C96.0747 357.312 96.9771 357.394 97.8796 357.394C98.7821 357.394 99.6845 357.312 100.575 357.148L100.847 358.623C102.779 358.267 104.659 357.56 106.388 356.501L105.605 355.222C106.363 354.758 107.089 354.219 107.774 353.604C108.117 353.296 109.26 352.26 111.037 350.55L112.078 351.63C113.732 350.038 115.93 347.869 118.541 345.165L117.462 344.123C119.332 342.187 121.415 339.974 123.665 337.5L124.775 338.509C126.687 336.407 128.718 334.117 130.839 331.649L129.701 330.671C131.576 328.49 133.522 326.168 135.518 323.714L136.682 324.66C138.535 322.381 140.431 319.989 142.354 317.487L141.165 316.572C142.956 314.242 144.771 311.817 146.596 309.301L147.81 310.181C149.56 307.77 151.319 305.275 153.076 302.701L151.837 301.855C153.513 299.4 155.187 296.872 156.849 294.275L158.113 295.084C159.727 292.563 161.33 289.977 162.913 287.328L161.625 286.559C163.159 283.993 164.673 281.369 166.16 278.689L167.471 279.417C168.933 276.783 170.368 274.095 171.769 271.357L170.434 270.673C171.801 268.002 173.135 265.282 174.428 262.516L175.787 263.151C177.067 260.414 178.309 257.631 179.504 254.806L178.122 254.221C179.293 251.455 180.418 248.648 181.493 245.802L182.896 246.331C183.964 243.502 184.983 240.633 185.944 237.728L184.52 237.257C185.465 234.403 186.354 231.515 187.182 228.594L188.625 229.003C189.451 226.09 190.216 223.143 190.915 220.166L189.455 219.823C190.142 216.898 190.764 213.942 191.315 210.959L192.79 211.232C193.34 208.254 193.821 205.248 194.226 202.217L192.739 202.018C193.136 199.043 193.46 196.043 193.706 193.019L195.201 193.14C195.446 190.125 195.612 187.086 195.696 184.026L194.197 183.985C194.238 182.477 194.259 180.965 194.259 179.447C194.259 177.93 194.238 176.417 194.197 174.91L195.696 174.868C195.612 171.808 195.446 168.769 195.201 165.754L193.706 165.875C193.46 162.852 193.136 159.851 192.739 156.876L194.226 156.678C193.821 153.646 193.34 150.64 192.79 147.663L191.315 147.935C190.764 144.952 190.142 141.997 189.455 139.071L190.915 138.728C190.216 135.751 189.451 132.805 188.625 129.891L187.182 130.301C186.354 127.379 185.465 124.491 184.52 121.637L185.944 121.166C184.983 118.261 183.964 115.393 182.896 112.563L181.493 113.093C180.418 110.246 179.293 107.439 178.122 104.673L179.504 104.089C178.309 101.263 177.067 98.4802 175.787 95.7429L174.428 96.3783C173.135 93.6122 171.801 90.8922 170.434 88.2208L171.769 87.5376C170.368 84.7988 168.933 82.1112 167.471 79.4772L166.16 80.205C164.673 77.5255 163.159 74.9015 161.625 72.3357L162.913 71.5662C161.33 68.9177 159.727 66.3314 158.113 63.8101L156.849 64.6188C155.187 62.022 153.513 59.4944 151.837 57.039L153.076 56.1933C151.319 53.6192 149.56 51.1245 147.81 48.7128L146.596 49.5936C144.771 47.0775 142.956 44.6522 141.165 42.3217L142.354 41.4076C140.431 38.9057 138.535 36.5129 136.682 34.2343L135.518 35.1806C133.522 32.7261 131.576 30.4047 129.701 28.223L130.839 27.2453C128.718 24.7774 126.687 22.4875 124.775 20.3849L123.665 21.3941C121.415 18.9203 119.332 16.7075 117.462 14.7713L118.541 13.7294Z" transform="translate(138.429 392.638) scale(0.999127 1.00087) rotate(-135.049)" stroke="#ADD2FF" stroke-width="3" stroke-dasharray="9 9"/>
</g>
</svg>
