<svg width="611" height="523" viewBox="0 0 611 523" fill="none" xmlns="http://www.w3.org/2000/svg">
<g opacity="0.89">
<path d="M172.23 15.3644C169.635 12.7718 167.484 10.6984 165.873 9.175L164.842 10.2649C163.18 8.69281 162.098 7.71272 161.705 7.35907C160.646 6.40966 159.523 5.57623 158.35 4.85833L159.134 3.57906C156.548 1.99609 153.735 0.938213 150.845 0.405432L150.573 1.88057C147.821 1.37309 144.994 1.37314 142.241 1.88072L141.969 0.405592C139.08 0.938446 136.267 1.99633 133.681 3.57925L134.464 4.85855C133.292 5.5764 132.168 6.40976 131.11 7.35907C130.716 7.71272 129.635 8.69281 127.972 10.2649L126.942 9.17501C125.331 10.6984 123.18 12.7718 120.585 15.3644L121.645 16.4255C119.808 18.2606 117.748 20.3575 115.497 22.7051L114.414 21.6671C112.516 23.6474 110.483 25.8051 108.337 28.1338L109.439 29.1504C107.548 31.2029 105.567 33.3887 103.511 35.7033L102.389 34.7072C100.516 36.8158 98.5818 39.0309 96.5958 41.349L97.7349 42.3249C95.8867 44.4823 93.9938 46.7291 92.0649 49.0629L90.9087 48.1072C89.0812 50.3183 87.2214 52.6071 85.3365 54.9712L86.5094 55.9063C84.7177 58.1536 82.9032 60.4693 81.0724 62.8512L79.8831 61.937C78.1192 64.2318 76.3401 66.588 74.5513 69.0036L75.7567 69.8963C74.0373 72.2183 72.309 74.5954 70.5767 77.026L69.3552 76.1554C67.6737 78.5148 65.9884 80.9245 64.3039 83.3831L65.5413 84.2309C63.9042 86.6203 62.2679 89.056 60.6365 91.5365L59.3832 90.7122C57.7822 93.1466 56.1858 95.6241 54.598 98.1436L55.867 98.9433C54.3148 101.406 52.7709 103.909 51.239 106.451L49.9543 105.677C48.4436 108.184 46.9444 110.728 45.4603 113.309L46.7607 114.057C45.3122 116.576 43.8782 119.13 42.4619 121.718L41.146 120.998C39.7424 123.563 38.356 126.161 36.9901 128.791L38.3213 129.483C36.976 132.073 35.6507 134.695 34.3485 137.347L33.002 136.686C31.7087 139.32 30.4379 141.984 29.1926 144.677L30.554 145.307C29.3309 147.952 28.1325 150.624 26.9618 153.324L25.5856 152.727C24.4192 155.417 23.28 158.134 22.1708 160.876L23.5614 161.439C22.465 164.149 21.3982 166.885 20.3636 169.645L18.959 169.119C17.9292 171.867 16.931 174.638 15.9672 177.434L17.3853 177.923C16.4336 180.683 15.5157 183.465 14.634 186.27L13.2031 185.82C12.3222 188.622 11.4773 191.445 10.6709 194.29L12.1141 194.699C11.3165 197.513 10.5569 200.347 9.8377 203.201L8.38319 202.834C7.66644 205.678 6.98954 208.542 6.35491 211.424L7.81983 211.747C7.19169 214.6 6.60522 217.471 6.06279 220.36L4.58855 220.083C4.04592 222.973 3.54708 225.881 3.09439 228.806L4.57674 229.036C4.13087 231.916 3.73005 234.814 3.37654 237.727L1.88747 237.546C1.53387 240.459 1.22731 243.389 0.970056 246.333L2.46436 246.464C2.20994 249.376 2.00403 252.303 1.84882 255.243L0.350907 255.164C0.196556 258.089 0.0920487 261.027 0.0395275 263.978L1.53929 264.005C1.51319 265.472 1.5 266.942 1.5 268.415C1.5 269.888 1.51319 271.358 1.53929 272.825L0.0395279 272.852C0.0920497 275.803 0.196558 278.742 0.350912 281.666L1.84883 281.587C2.00403 284.527 2.20995 287.454 2.46437 290.366L0.970066 290.497C1.22732 293.441 1.53388 296.371 1.88749 299.284L3.37656 299.103C3.73007 302.016 4.1309 304.914 4.57677 307.794L3.09442 308.024C3.54711 310.949 4.04596 313.857 4.5886 316.747L6.06284 316.47C6.60527 319.359 7.19174 322.23 7.81989 325.083L6.35497 325.406C6.98961 328.288 7.66652 331.152 8.38327 333.996L9.83778 333.629C10.557 336.483 11.3166 339.317 12.1142 342.131L10.671 342.54C11.4774 345.385 12.3223 348.208 13.2032 351.01L14.6341 350.56C15.5158 353.365 16.4338 356.147 17.3854 358.907L15.9673 359.396C16.9312 362.191 17.9293 364.963 18.9592 367.711L20.3638 367.184C21.3984 369.945 22.4652 372.681 23.5616 375.391L22.171 375.954C23.2802 378.696 24.4194 381.413 25.5858 384.103L26.962 383.506C28.1327 386.205 29.3311 388.878 30.5543 391.523L29.1928 392.153C30.4381 394.846 31.7089 397.51 33.0023 400.144L34.3487 399.482C35.651 402.135 36.9763 404.756 38.3216 407.347L36.9904 408.038C38.3563 410.669 39.7427 413.267 41.1463 415.832L42.4621 415.111C43.8785 417.699 45.3125 420.254 46.761 422.773L45.4606 423.521C46.9448 426.102 48.4439 428.646 49.9546 431.153L51.2394 430.379C52.7713 432.921 54.3151 435.423 55.8673 437.886L54.5983 438.686C56.1861 441.206 57.7825 443.683 59.3836 446.118L60.6368 445.293C62.2682 447.774 63.9046 450.209 65.5417 452.599L64.3043 453.447C65.9888 455.905 67.6741 458.315 69.3556 460.674L70.5771 459.804C72.3094 462.234 74.0377 464.611 75.7571 466.933L74.5517 467.826C76.3404 470.242 78.1196 472.598 79.8835 474.893L81.0727 473.979C82.9036 476.36 84.718 478.676 86.5098 480.923L85.3369 481.858C87.2218 484.223 89.0816 486.511 90.9091 488.722L92.0653 487.767C93.9942 490.101 95.887 492.347 97.7353 494.505L96.5961 495.481C98.5822 497.799 100.517 500.014 102.39 502.123L103.511 501.126C105.567 503.441 107.548 505.627 109.44 507.679L108.337 508.696C110.484 511.025 112.516 513.182 114.415 515.163L115.497 514.125C117.748 516.472 119.809 518.569 121.645 520.404L120.585 521.465C123.18 524.058 125.331 526.131 126.942 527.655L127.972 526.565C129.635 528.137 130.717 529.117 131.11 529.471C132.168 530.421 133.291 531.254 134.464 531.972L133.681 533.251C136.266 534.834 139.079 535.892 141.969 536.425L142.241 534.949C143.617 535.203 145.012 535.33 146.407 535.33C147.802 535.33 149.197 535.203 150.573 534.949L150.845 536.424C153.735 535.892 156.548 534.834 159.134 533.251L158.351 531.971C159.523 531.254 160.646 530.42 161.705 529.471C162.098 529.117 163.18 528.137 164.842 526.565L165.873 527.655C167.484 526.132 169.635 524.058 172.23 521.466L171.169 520.404C173.006 518.569 175.067 516.473 177.317 514.125L178.4 515.163C180.299 513.183 182.331 511.025 184.478 508.696L183.375 507.68C185.267 505.627 187.248 503.441 189.304 501.127L190.425 502.123C192.298 500.014 194.233 497.799 196.219 495.481L195.08 494.505C196.928 492.348 198.821 490.101 200.75 487.767L201.906 488.723C203.733 486.512 205.593 484.223 207.478 481.859L206.305 480.924C208.097 478.676 209.911 476.361 211.742 473.979L212.931 474.893C214.695 472.598 216.475 470.242 218.263 467.826L217.058 466.934C218.777 464.612 220.506 462.235 222.238 459.804L223.459 460.675C225.141 458.315 226.826 455.906 228.511 453.447L227.273 452.599C228.91 450.21 230.547 447.774 232.178 445.294L233.431 446.118C235.032 443.683 236.629 441.206 238.217 438.686L236.948 437.887C238.5 435.424 240.044 432.921 241.576 430.379L242.86 431.153C244.371 428.646 245.87 426.102 247.354 423.521L246.054 422.773C247.502 420.254 248.936 417.7 250.353 415.112L251.669 415.832C253.072 413.267 254.459 410.669 255.824 408.039L254.493 407.347C255.839 404.757 257.164 402.135 258.466 399.483L259.813 400.144C261.106 397.51 262.377 394.846 263.622 392.153L262.261 391.523C263.484 388.878 264.682 386.206 265.853 383.506L267.229 384.103C268.395 381.413 269.535 378.696 270.644 375.954L269.253 375.391C270.35 372.681 271.416 369.945 272.451 367.185L273.856 367.711C274.885 364.963 275.884 362.192 276.847 359.396L275.429 358.907C276.381 356.147 277.299 353.365 278.181 350.56L279.612 351.01C280.492 348.208 281.337 345.385 282.144 342.54L280.701 342.131C281.498 339.317 282.258 336.483 282.977 333.629L284.431 333.996C285.148 331.152 285.825 328.288 286.46 325.406L284.995 325.083C285.623 322.23 286.209 319.359 286.752 316.47L288.226 316.747C288.769 313.857 289.267 310.949 289.72 308.024L288.238 307.794C288.684 304.914 289.085 302.016 289.438 299.103L290.927 299.284C291.281 296.371 291.587 293.441 291.845 290.497L290.35 290.366C290.605 287.454 290.811 284.527 290.966 281.587L292.464 281.666C292.618 278.742 292.723 275.803 292.775 272.852L291.275 272.825C291.301 271.358 291.315 269.888 291.315 268.415C291.315 266.942 291.301 265.472 291.275 264.005L292.775 263.978C292.723 261.027 292.618 258.088 292.464 255.164L290.966 255.243C290.811 252.303 290.605 249.376 290.35 246.464L291.845 246.333C291.587 243.389 291.281 240.459 290.927 237.546L289.438 237.727C289.085 234.814 288.684 231.916 288.238 229.036L289.72 228.806C289.267 225.881 288.769 222.973 288.226 220.083L286.752 220.36C286.209 217.471 285.623 214.6 284.995 211.747L286.46 211.424C285.825 208.542 285.148 205.678 284.431 202.834L282.977 203.201C282.258 200.347 281.498 197.513 280.701 194.699L282.144 194.29C281.337 191.445 280.492 188.622 279.611 185.82L278.181 186.27C277.299 183.465 276.381 180.683 275.429 177.923L276.847 177.434C275.884 174.638 274.885 171.867 273.856 169.119L272.451 169.645C271.416 166.885 270.35 164.149 269.253 161.439L270.644 160.876C269.535 158.134 268.395 155.417 267.229 152.727L265.853 153.324C264.682 150.624 263.484 147.952 262.261 145.307L263.622 144.677C262.377 141.984 261.106 139.32 259.813 136.686L258.466 137.347C257.164 134.695 255.839 132.073 254.493 129.483L255.824 128.791C254.459 126.161 253.072 123.563 251.669 120.998L250.353 121.718C248.936 119.13 247.502 116.576 246.054 114.057L247.354 113.309C245.87 110.728 244.371 108.184 242.86 105.677L241.576 106.451C240.044 103.909 238.5 101.406 236.948 98.9433L238.217 98.1436C236.629 95.6241 235.032 93.1466 233.431 90.7122L232.178 91.5365C230.547 89.0559 228.91 86.6203 227.273 84.2309L228.511 83.3831C226.826 80.9245 225.141 78.5148 223.459 76.1554L222.238 77.026C220.506 74.5954 218.777 72.2183 217.058 69.8963L218.263 69.0036C216.475 66.5879 214.695 64.2318 212.931 61.937L211.742 62.8512C209.911 60.4693 208.097 58.1536 206.305 55.9063L207.478 54.9712C205.593 52.6071 203.733 50.3183 201.906 48.1072L200.75 49.0628C198.821 46.7291 196.928 44.4823 195.08 42.3249L196.219 41.349C194.233 39.0309 192.298 36.8158 190.425 34.7072L189.304 35.7033C187.248 33.3887 185.267 31.2029 183.375 29.1504L184.478 28.1338C182.331 25.8051 180.299 23.6474 178.4 21.6671L177.317 22.7051C175.067 20.3575 173.006 18.2606 171.169 16.4255L172.23 15.3644Z" transform="matrix(-0.499977 -0.866039 0.865165 -0.501488 146.414 522.803)" stroke="#ADD2FF" stroke-width="3" stroke-dasharray="9 9"/>
</g>
</svg>
