<svg width="101" height="66" viewBox="0 0 101 66" fill="none" xmlns="http://www.w3.org/2000/svg">
<path d="M17.0103 0.652647C16.0404 -0.217549 14.5722 -0.217549 13.6022 0.652647C13.0474 1.1509 2.97988e-07 13.0299 2.97988e-07 28.0596C2.97988e-07 43.0892 13.0476 54.9682 13.6022 55.4665C14.0872 55.9017 14.6967 56.1191 15.3062 56.1191C15.9158 56.1191 16.5253 55.9016 17.0103 55.4665C17.565 54.9682 30.6125 43.0892 30.6125 28.0596C30.6125 13.0299 17.565 1.1509 17.0103 0.652647Z" transform="matrix(0.868257 -0.496122 0.502747 0.864438 11.3926 15.1875)" fill="#3A539B"/>
<g opacity="0.89">
<path d="M17.0878 0.650588C16.1135 -0.216863 14.6387 -0.216863 13.6642 0.650588C13.1069 1.14727 2.99346e-07 12.9888 2.99346e-07 27.971C2.99346e-07 42.9533 13.1071 54.7948 13.6642 55.2915C14.1514 55.7254 14.7637 55.9421 15.376 55.9421C15.9883 55.9421 16.6006 55.7252 17.0878 55.2915C17.6451 54.7948 30.752 42.9533 30.752 27.971C30.752 12.9888 17.6451 1.14727 17.0878 0.650588Z" transform="translate(36.3687 0.434082)" fill="#5773BE"/>
</g>
<g opacity="0.89">
<path d="M17.0103 0.652647C16.0404 -0.217549 14.5722 -0.217549 13.6022 0.652647C13.0474 1.1509 2.97988e-07 13.0299 2.97988e-07 28.0596C2.97988e-07 43.0892 13.0476 54.9682 13.6022 55.4665C14.0872 55.9017 14.6967 56.1191 15.3062 56.1191C15.9158 56.1191 16.5253 55.9016 17.0103 55.4665C17.565 54.9682 30.6125 43.0892 30.6125 28.0596C30.6125 13.0299 17.565 1.1509 17.0103 0.652647Z" transform="matrix(0.868257 0.496122 -0.502747 0.864438 65.2397 0)" fill="#7997F9"/>
</g>
</svg>
