<svg width="125" height="82" viewBox="0 0 125 82" fill="none" xmlns="http://www.w3.org/2000/svg">
<path d="M21.099 0.809545C19.896 -0.269849 18.0749 -0.269849 16.8717 0.809545C16.1836 1.42759 3.69614e-07 16.1623 3.69614e-07 34.8052C3.69614e-07 53.448 16.1838 68.1827 16.8717 68.8008C17.4733 69.3407 18.2293 69.6103 18.9853 69.6103C19.7414 69.6103 20.4974 69.3405 21.099 68.8008C21.7871 68.1827 37.9707 53.448 37.9707 34.8052C37.9707 16.1623 21.7871 1.42759 21.099 0.809545Z" transform="matrix(0.86731 -0.497771 0.50109 0.865396 14.0997 18.9007)" fill="#3A539B"/>
<g opacity="0.89">
<path d="M21.1483 0.808306C19.9425 -0.269436 18.1171 -0.269436 16.9111 0.808306C16.2214 1.4254 3.70478e-07 16.1376 3.70478e-07 34.7519C3.70478e-07 53.3662 16.2216 68.0784 16.9111 68.6955C17.5141 69.2345 18.2719 69.5038 19.0297 69.5038C19.7875 69.5038 20.5453 69.2344 21.1483 68.6955C21.838 68.0784 38.0594 53.3662 38.0594 34.7519C38.0594 16.1376 21.838 1.4254 21.1483 0.808306Z" transform="translate(45.0109 0.539459)" fill="#5773BE"/>
</g>
<g opacity="0.89">
<path d="M21.099 0.809545C19.896 -0.269849 18.0749 -0.269849 16.8717 0.809545C16.1836 1.42759 3.69614e-07 16.1623 3.69614e-07 34.8052C3.69614e-07 53.448 16.1838 68.1827 16.8717 68.8008C17.4733 69.3407 18.2293 69.6103 18.9853 69.6103C19.7414 69.6103 20.4974 69.3405 21.099 68.8008C21.7871 68.1827 37.9707 53.448 37.9707 34.8052C37.9707 16.1623 21.7871 1.42759 21.099 0.809545Z" transform="matrix(0.86731 0.497771 -0.50109 0.865396 80.7053 0)" fill="#7997F9"/>
</g>
</svg>
