<svg width="53" height="34" viewBox="0 0 53 34" fill="none" xmlns="http://www.w3.org/2000/svg">
<path d="M8.83302 0.338856C8.32939 -0.112952 7.567 -0.112952 7.06328 0.338856C6.77522 0.597552 1.54738e-07 6.76516 1.54738e-07 14.5686C1.54738e-07 22.372 6.7753 28.5396 7.06328 28.7983C7.31514 29.0243 7.63165 29.1372 7.94815 29.1372C8.26466 29.1372 8.58117 29.0242 8.83302 28.7983C9.12109 28.5396 15.8963 22.372 15.8963 14.5686C15.8963 6.76516 9.12109 0.597552 8.83302 0.338856Z" transform="matrix(0.87272 -0.488297 0.510683 0.859814 5.97827 7.76221)" fill="#F1F4FF" fill-opacity="0.6"/>
<g opacity="0.89">
<path d="M8.96688 0.335151C8.45561 -0.111717 7.68167 -0.111717 7.17032 0.335151C6.87789 0.59102 1.57082e-07 6.6912 1.57082e-07 14.4093C1.57082e-07 22.1274 6.87797 28.2276 7.17032 28.4835C7.42599 28.707 7.74729 28.8186 8.0686 28.8186C8.3899 28.8186 8.7112 28.7069 8.96688 28.4835C9.25931 28.2276 16.1372 22.1274 16.1372 14.4093C16.1372 6.6912 9.25931 0.59102 8.96688 0.335151Z" transform="translate(19.0846 0.223633)" fill="#E2EFFF"/>
</g>
<g opacity="0.89">
<path d="M8.83302 0.338856C8.32939 -0.112952 7.567 -0.112952 7.06328 0.338856C6.77522 0.597552 1.54738e-07 6.76516 1.54738e-07 14.5686C1.54738e-07 22.372 6.7753 28.5396 7.06328 28.7983C7.31514 29.0243 7.63165 29.1372 7.94815 29.1372C8.26466 29.1372 8.58117 29.0242 8.83302 28.7983C9.12109 28.5396 15.8963 22.372 15.8963 14.5686C15.8963 6.76516 9.12109 0.597552 8.83302 0.338856Z" transform="matrix(0.87272 0.488297 -0.510683 0.859814 34.3093 0)" fill="#8CC0FF"/>
</g>
</svg>
