<svg width="25" height="19" viewBox="0 0 25 19" fill="none" xmlns="http://www.w3.org/2000/svg">
<path d="M9.69361 8.88047L5.22105 0.329049C5.11524 0.126747 4.90875 0.000690423 4.68223 -2.70911e-08C4.6816 -2.70911e-08 4.68101 -2.70911e-08 4.68043 -2.70911e-08C4.4546 -2.70911e-08 4.2482 0.124725 4.14151 0.325892L0.043364 8.05203C-0.0243118 8.17956 -0.0120073 8.33531 0.0749068 8.45037L1.07803 9.77909C1.18902 9.92611 1.35752 10.0145 1.54043 10.0217C1.72276 10.0294 1.89815 9.95402 2.02007 9.81618L3.60606 8.02357L6.68892 11.6995C6.80401 11.8368 6.97218 11.9164 7.1502 11.9179C7.15196 11.9179 7.15372 11.9179 7.15548 11.9179C7.3316 11.9179 7.49889 11.8414 7.6151 11.7075L9.44224 9.60327C9.45274 9.59114 9.46246 9.57837 9.47135 9.56495L9.67433 9.25819C9.74893 9.1454 9.75636 9.00041 9.69361 8.88047ZM8.87662 9.13446L7.15704 11.1149L4.07501 7.43989C3.96065 7.30358 3.79356 7.22398 3.61661 7.22161C3.61392 7.22156 3.61124 7.22156 3.6085 7.22156C3.43453 7.22156 3.26876 7.29633 3.15264 7.42761L1.57154 9.21465L0.799077 8.19145L4.67974 0.875392L8.94522 9.03084L8.87662 9.13446Z" transform="translate(10.4156 0.000244141)" fill="white"/>
<path d="M24.9285 18.094L22.0575 12.6051C21.9632 12.4247 21.7421 12.3558 21.5634 12.451C21.3849 12.5463 21.3166 12.7697 21.4109 12.9501L24.189 18.2614H14.4496C14.4381 18.2041 10.2062 10.093 10.2062 10.093L10.8352 8.90715L11.4936 9.77934C11.6046 9.92635 11.7731 10.0148 11.956 10.022C12.1383 10.0296 12.3137 9.95427 12.4357 9.81642L14.0216 8.02382L17.1045 11.6998C17.2196 11.837 17.3878 11.9166 17.5658 11.9182C17.5675 11.9182 17.5693 11.9182 17.5711 11.9182C17.7472 11.9182 17.9145 11.8417 18.0307 11.7078C18.0319 11.7064 18.0332 11.705 18.0343 11.7035L19.7149 9.70763L20.3981 11.0138C20.4924 11.1941 20.7136 11.2631 20.8921 11.1678C21.0707 11.0725 21.139 10.8491 21.0446 10.6687L15.6366 0.329049C15.5307 0.126747 15.3243 0.000690531 15.0978 8.12733e-08H15.096C14.8701 8.12733e-08 14.6637 0.124725 14.557 0.325942L10.7176 7.56462L10.459 8.05223C10.459 8.05227 10.4589 8.05232 10.4589 8.05237L9.79429 9.30544L7.81817 5.52735C7.73877 5.3756 7.60279 5.26675 7.44414 5.22153C7.39121 5.20644 7.33579 5.1984 7.27911 5.19825C7.27852 5.19825 7.27793 5.19825 7.27735 5.19825C7.26978 5.19825 7.26231 5.19874 7.25479 5.19904C7.24859 5.19924 7.24234 5.19929 7.23619 5.19968C7.23057 5.20007 7.22505 5.20081 7.21949 5.20136C7.21118 5.20215 7.20288 5.20279 7.19468 5.20392C7.18731 5.20491 7.18003 5.20639 7.17276 5.20767C7.16665 5.20875 7.16045 5.20959 7.1544 5.21088C6.97852 5.24717 6.82539 5.36031 6.73843 5.52424L5.40005 8.04764L3.14898 12.2917C3.14859 12.2925 3.14829 12.2933 3.1479 12.294L0.0731931 18.0909C-0.0292484 18.2841 -0.0238773 18.5117 0.0875485 18.6997C0.199023 18.8878 0.395117 19 0.612109 19H24.3879C24.6041 19 24.7999 18.8883 24.9115 18.7012C25.0232 18.5142 25.0295 18.2872 24.9285 18.094ZM11.3254 7.98288L15.0953 0.875638L19.3469 9.00455L17.5712 11.1134L14.4906 7.44009C14.3762 7.30373 14.2091 7.22413 14.0322 7.22181C14.0295 7.22176 14.0268 7.22176 14.0241 7.22176C13.8501 7.22176 13.6843 7.29658 13.5682 7.42781L11.9871 9.21484L11.2147 8.19165L11.3254 7.98288ZM0.812451 18.2613L3.5813 13.041L4.64878 13.9441C4.76392 14.0415 4.90318 14.0893 5.04165 14.0893C5.20957 14.0893 5.37632 14.019 5.49756 13.8818L6.72193 12.4958L7.5105 13.286C7.65386 13.4297 7.8854 13.4288 8.02764 13.284C8.16988 13.1392 8.16895 12.9053 8.02564 12.7617L7.14727 11.8815C7.02871 11.7627 6.86553 11.6978 6.69805 11.7026C6.53111 11.7077 6.37159 11.7828 6.26045 11.9087L5.0293 13.3024L3.93408 12.3759L7.27671 6.07379L11.5901 14.3207L10.5488 15.2901L9.5962 14.3354C9.45289 14.1918 9.22134 14.1927 9.07906 14.3375C8.93682 14.4822 8.93775 14.7161 9.08111 14.8598L10.1151 15.896C10.2344 16.0155 10.3899 16.0755 10.5457 16.0755C10.694 16.0755 10.8425 16.0211 10.9601 15.9117L11.9437 14.996L13.6515 18.2613H0.812451Z" fill="white"/>
</svg>
