<svg width="27" height="17" viewBox="0 0 27 17" fill="none" xmlns="http://www.w3.org/2000/svg">
<path d="M0.657203 16.7428C2.81429 14.7273 3.96267 12.7597 4.57306 11.2554C4.90046 10.4485 5.0726 9.77609 5.16296 9.30261C5.20814 9.06587 5.23288 8.87883 5.24637 8.74952C5.25312 8.68487 5.25705 8.63463 5.25932 8.59983C5.26045 8.58242 5.26117 8.56888 5.26161 8.55931L5.26209 8.54795L5.26221 8.54455L5.26225 8.54341L5.26226 8.54299C5.26227 8.54282 5.26227 8.54266 5.01237 8.53558L5.26238 8.54267L5.26237 8.53522L5.25028 0.193398L26.6765 16.75H26.665H26.6515H26.638H26.6245H26.6109H26.5973H26.5836H26.5699H26.5562H26.5424H26.5286H26.5147H26.5008H26.4869H26.4729H26.4589H26.4449H26.4308H26.4167H26.4025H26.3883H26.3741H26.3599H26.3456H26.3312H26.3169H26.3025H26.2881H26.2736H26.2591H26.2446H26.23H26.2155H26.2008H26.1862H26.1715H26.1568H26.1421H26.1273H26.1125H26.0976H26.0828H26.0679H26.053H26.038H26.023H26.008H25.993H25.9779H25.9628H25.9477H25.9326H25.9174H25.9022H25.887H25.8718H25.8565H25.8412H25.8259H25.8105H25.7952H25.7798H25.7644H25.7489H25.7335H25.718H25.7025H25.6869H25.6714H25.6558H25.6402H25.6246H25.609H25.5933H25.5776H25.5619H25.5462H25.5305H25.5147H25.499H25.4832H25.4674H25.4515H25.4357H25.4198H25.4039H25.388H25.3721H25.3562H25.3403H25.3243H25.3083H25.2923H25.2763H25.2603H25.2443H25.2282H25.2121H25.1961H25.18H25.1639H25.1478H25.1316H25.1155H25.0993H25.0832H25.067H25.0508H25.0346H25.0184H25.0022H24.986H24.9698H24.9535H24.9373H24.921H24.9047H24.8884H24.8722H24.8559H24.8396H24.8233H24.8069H24.7906H24.7743H24.758H24.7416H24.7253H24.7089H24.6926H24.6762H24.6599H24.6435H24.6271H24.6108H24.5944H24.578H24.5616H24.5453H24.5289H24.5125H24.4961H24.4797H24.4633H24.4469H24.4305H24.4142H24.3978H24.3814H24.365H24.3486H24.3322H24.3158H24.2995H24.2831H24.2667H24.2503H24.234H24.2176H24.2012H24.1849H24.1685H24.1522H24.1358H24.1195H24.1032H24.0868H24.0705H24.0542H24.0379H24.0216H24.0053H23.989H23.9727H23.9564H23.9402H23.9239H23.9077H23.8914H23.8752H23.859H23.8428H23.8266H23.8104H23.7942H23.7781H23.7619H23.7458H23.7296H23.7135H23.6974H23.6813H23.6652H23.6492H23.6331H23.6171H23.601H23.585H23.569H23.5531H23.5371H23.5211H23.5052H23.4893H23.4734H23.4575H23.4416H23.4258H23.4099H23.3941H23.3783H23.3625H23.3468H23.331H23.3153H23.2996H23.2839H23.2683H23.2526H23.237H23.2214H23.2058H23.1903H23.1747H23.1592H23.1437H23.1283H23.1128H23.0974H23.082H23.0666H23.0513H23.0359H23.0206H23.0053H22.9901H22.9749H22.9597H22.9445H22.9293H22.9142H22.8991H22.884H22.869H22.854H22.839H22.824H22.8091H22.7942H22.7793H22.7645H22.7497H22.7349H22.7201H22.7054H22.6907H22.6761H22.6614H22.6468H22.6323H22.6177H22.6032H22.5888H22.5743H22.5599H22.5455H22.5312H22.5169H22.5026H22.4884H22.4742H22.4601H22.4459H22.4318H22.4178H22.4038H22.3898H22.3758H22.3619H22.3481H22.3342H22.3204H22.3067H22.293H22.2793H22.2657H22.2521H22.2385H22.225H22.2115H22.1981H22.1847H22.1713H22.158H22.1447H22.1315H22.1183H22.1051H22.092H22.079H22.066H22.053H22.0401H22.0272H22.0143H22.0015H21.9888H21.9761H21.9634H21.9508H21.9382H21.9257H21.9133H21.9008H21.8884H21.8761H21.8638H21.8516H21.8394H21.8273H21.8152H21.8031H21.7912H21.7792H21.7673H21.7555H21.7437H21.732H21.7203H21.7086H21.697H21.6855H21.674H21.6626H21.6512H21.6399H21.6287H21.6174H21.6063H21.5952H21.5841H21.5731H21.5622H21.5513H21.5405H21.5297H21.519H21.5083H21.4977H21.4872H21.4767H21.4663H21.4559H21.4456H21.4353H21.4251H21.415H21.4049H21.3949H21.385H21.3751H21.3652H21.3554H21.3457H21.3361H21.3265H21.317H21.3075H21.2981H21.2887H21.2795H21.2703H21.2611H21.252H21.243H21.234H21.2251H21.2163H21.2075H21.1988H21.1902H21.1817H21.1732H21.1647H21.1564H21.1481H21.1398H21.1317H21.1236H21.1155H21.1076H21.0997H21.0919H21.0841H21.0765H21.0688H21.0613H21.0538H21.0464H21.0391H21.0319H21.0247H21.0176H21.0105H21.0036H20.9967H20.9899H20.9831H20.9764H20.9698H20.9633H20.9569H20.9505H20.9442H20.938H20.9318H20.9258H20.9198H20.9138H20.908H20.9022H20.8966H20.8909H20.8854H20.88H20.8746H20.8693H20.8641H20.8589H20.8539H20.8489H20.844H20.8392H20.8345H20.8298H20.8252H20.8207H20.8163H20.812H20.8078H20.8036H20.7995H20.7955H20.7916H20.7878H20.784H20.7804H20.7768H20.7733H20.7699H20.7666H20.7634H20.7602H20.7572H20.7542H20.7513H20.7485H20.7458H20.7432H20.7406H20.7382H20.7358H20.7336H20.7314H20.7293H20.7273H20.7254H20.7236H20.7218H20.7202H20.7187H20.7172H20.7158H20.7146H20.7134H20.7123H20.7113H20.7104H20.7096H20.7089H20.7083H20.7078C17.8197 16.72 14.1647 15.8573 11.9348 13.7623L11.7771 13.6142L11.6081 13.7487L11.608 13.7488L11.608 13.7488L11.6079 13.7489L11.6066 13.7499L11.5998 13.7552C11.5933 13.7602 11.5832 13.7679 11.5692 13.7783C11.5414 13.799 11.4986 13.8302 11.4407 13.8703C11.325 13.9506 11.1492 14.0666 10.9127 14.2066C10.4398 14.4866 9.72445 14.8624 8.76276 15.239C6.94873 15.9494 4.25601 16.6637 0.657203 16.7428Z" fill="white" stroke="#C3CEDE" stroke-width="0.5"/>
</svg>
