<svg width="23" height="20" viewBox="0 0 23 20" fill="none" xmlns="http://www.w3.org/2000/svg">
<path d="M21.9893 8.35127H21.6526V7.36209V3.84563C21.6526 2.69434 20.6953 1.75768 19.5188 1.75768H10.2658L4.02338 0.0124636C4.02158 0.0119801 4.01974 0.0117163 4.01794 0.0112328C4.0161 0.0107493 4.01435 0.010046 4.0125 0.00960649C4.00873 0.00868342 4.005 0.00824387 4.00127 0.00745266C3.99548 0.00626586 3.98968 0.00503509 3.98389 0.00411202C3.97863 0.00327685 3.97347 0.00274938 3.96821 0.002134C3.9621 0.00143071 3.95604 0.000815322 3.94997 0.000463676C3.94503 0.000199941 3.94014 0.000155951 3.93519 6.80394e-05C3.9289 -1.98722e-05 3.92266 -6.38166e-05 3.91642 0.000199918C3.91179 0.000375741 3.90716 0.000815271 3.90258 0.00116692C3.89616 0.00169439 3.88973 0.00226588 3.8834 0.00318895C3.87909 0.00380433 3.87482 0.00459552 3.87055 0.00534277C3.86399 0.00648562 3.85752 0.00771633 3.8511 0.00925478C3.8471 0.0102218 3.84319 0.0113207 3.83924 0.0124196C3.83268 0.0142658 3.82621 0.0161559 3.81974 0.0183537C3.81611 0.0196284 3.81251 0.0209911 3.80887 0.0223976C3.80236 0.0248592 3.79589 0.0274525 3.78956 0.0303096C3.78619 0.0318481 3.78291 0.0335184 3.77958 0.0351448C3.77325 0.0382656 3.76701 0.0414305 3.7609 0.0449909C3.75771 0.0467931 3.75465 0.0487272 3.75151 0.0506612C3.74549 0.0543535 3.73956 0.0581337 3.73381 0.0622216C3.7308 0.0643315 3.72788 0.0666171 3.72491 0.0688589C3.71939 0.0730347 3.71391 0.0772984 3.70865 0.0818258C3.70569 0.0843753 3.70286 0.0870566 3.69998 0.089694C3.69504 0.0942654 3.69015 0.0988367 3.68547 0.103672C3.68255 0.106705 3.67981 0.10987 3.67698 0.113034C3.67272 0.117826 3.66849 0.122661 3.66449 0.127716C3.66162 0.131364 3.65892 0.1351 3.65618 0.138837C3.65264 0.143716 3.64913 0.148639 3.6459 0.153694C3.64311 0.158001 3.64055 0.162485 3.63799 0.166924C3.63516 0.171803 3.63233 0.176726 3.62977 0.181781C3.62725 0.186704 3.62501 0.191759 3.62272 0.196814C3.62047 0.201781 3.61827 0.206748 3.61629 0.211847C3.61423 0.21721 3.61243 0.222704 3.61059 0.228243C3.60942 0.231803 3.60798 0.235144 3.60691 0.238748C3.60637 0.24055 3.60614 0.242308 3.60565 0.244067C3.60515 0.245869 3.60443 0.247583 3.60399 0.249385L3.21874 1.7576H2.13401C0.959799 1.7576 0.00422265 2.69047 0.000359374 3.8386C0.000314453 3.84097 0 3.84321 0 3.84554V15.274C0 15.456 0.151386 15.6037 0.336913 15.6037C0.52289 15.6037 0.673827 15.456 0.673827 15.274V5.3661C1.05584 5.71757 1.56948 5.93357 2.13401 5.93357H19.5188C19.5192 5.93357 19.5196 5.93353 19.52 5.93353C20.3244 5.93414 20.9787 6.57476 20.9787 7.36214V9.66999H17.2722C17.2719 9.66999 17.2718 9.67004 17.2715 9.67004C17.2618 9.67004 17.2521 9.67061 17.2424 9.67144C17.2317 9.67237 17.2211 9.67386 17.2107 9.67575C17.2091 9.67601 17.2076 9.67615 17.206 9.67645C17.1972 9.67817 17.1886 9.68045 17.18 9.68283C17.1781 9.68335 17.1762 9.68371 17.1743 9.68428C17.1667 9.68656 17.1593 9.68929 17.1519 9.69206C17.149 9.69311 17.1462 9.69399 17.1433 9.69513C17.1371 9.69764 17.1311 9.70058 17.1252 9.70344C17.1212 9.70529 17.1172 9.707 17.1134 9.70898C17.1087 9.7114 17.1043 9.71417 17.0998 9.7168C17.0948 9.71971 17.0897 9.72252 17.0849 9.72568C17.0816 9.72779 17.0786 9.73021 17.0754 9.73245C17.0697 9.7365 17.0639 9.7405 17.0584 9.74494C17.056 9.74687 17.0538 9.74902 17.0515 9.751C17.0457 9.75601 17.0398 9.76098 17.0342 9.76643C17.0309 9.76964 17.028 9.77316 17.0249 9.7765C17.0205 9.78111 17.016 9.78564 17.0119 9.79056C17.0049 9.79887 16.9984 9.80749 16.9923 9.81641C16.9922 9.81654 16.992 9.81672 16.9919 9.81689L15.1952 12.4543C15.1826 12.4727 15.172 12.4921 15.1636 12.5124C15.1604 12.52 15.1579 12.5276 15.1553 12.5353C15.1545 12.5376 15.1536 12.5399 15.1528 12.5422C15.1503 12.5503 15.1484 12.5585 15.1465 12.5667C15.1461 12.5689 15.1454 12.571 15.145 12.5731C15.1435 12.5805 15.1425 12.588 15.1416 12.5954C15.1412 12.5985 15.1405 12.6017 15.1402 12.6049C15.1396 12.611 15.1395 12.6171 15.1392 12.6232C15.139 12.6279 15.1386 12.6325 15.1386 12.6372C15.1386 12.6418 15.139 12.6463 15.1392 12.6508C15.1394 12.6571 15.1396 12.6633 15.1402 12.6696C15.1405 12.6726 15.1411 12.6756 15.1415 12.6787C15.1425 12.6862 15.1435 12.6938 15.145 12.7013C15.1454 12.7034 15.1461 12.7054 15.1465 12.7075C15.1484 12.7157 15.1504 12.724 15.1529 12.7322C15.1536 12.7345 15.1546 12.7368 15.1554 12.7392C15.1579 12.7468 15.1605 12.7545 15.1637 12.7621C15.1721 12.7823 15.1827 12.8018 15.1953 12.8202L16.992 15.4572C16.9921 15.4573 16.9922 15.4574 16.9923 15.4576C16.9995 15.4681 17.0074 15.4781 17.0158 15.4877C17.0185 15.4909 17.0215 15.4938 17.0243 15.4968C17.03 15.5029 17.0359 15.5088 17.0421 15.5145C17.0457 15.5178 17.0493 15.5211 17.053 15.5242C17.0595 15.5297 17.0663 15.5348 17.0733 15.5398C17.0764 15.5421 17.0794 15.5446 17.0826 15.5467C17.0927 15.5534 17.1032 15.5596 17.114 15.5652C17.1168 15.5666 17.1196 15.5678 17.1223 15.5691C17.131 15.5733 17.1398 15.5773 17.1488 15.5807C17.1523 15.5821 17.1558 15.5833 17.1594 15.5846C17.1679 15.5875 17.1767 15.5902 17.1855 15.5925C17.1892 15.5934 17.1928 15.5944 17.1965 15.5953C17.2056 15.5973 17.2148 15.5989 17.2242 15.6002C17.2276 15.6007 17.231 15.6014 17.2344 15.6018C17.246 15.6031 17.2578 15.6038 17.2697 15.6038C17.2707 15.6038 17.2716 15.604 17.2726 15.604C17.2728 15.604 17.273 15.604 17.2732 15.604H20.9789V17.912C20.9789 18.6998 20.3239 19.3407 19.5189 19.3407H2.13419C1.32919 19.3407 0.674231 18.6998 0.674231 17.912C0.674231 17.9103 0.674007 17.9086 0.673962 17.9069V16.5929C0.673962 16.4114 0.523024 16.2632 0.337048 16.2632C0.151521 16.2632 0.000134765 16.4114 0.000134765 16.5929V17.912C0.000134765 17.9154 0.000539061 17.9188 0.000673827 17.9222C0.00628905 19.0688 0.961102 20 2.13419 20H19.5189C20.6954 20 21.6525 19.0635 21.6527 17.9124C21.6527 17.9123 21.6527 17.9123 21.6527 17.9122V15.604H21.9894C22.5466 15.604 23 15.1604 23 14.6152V9.3401C22.9999 8.79488 22.5465 8.35127 21.9893 8.35127ZM4.17323 0.740064L10.1181 2.40216C10.1184 2.40225 10.1187 2.4023 10.119 2.40238L14.1034 3.51631H3.4641L4.17323 0.740064ZM20.9787 5.84149C20.5967 5.4901 20.0832 5.27415 19.5188 5.27415C19.5182 5.27415 19.5177 5.27424 19.517 5.27424H2.13401C1.32897 5.27424 0.674007 4.63336 0.674007 3.84563C0.674007 3.0579 1.32897 2.41702 2.13401 2.41702H3.05032L2.76956 3.51631H2.1341C1.94803 3.51631 1.79719 3.66392 1.79719 3.84598C1.79719 4.02805 1.94803 4.17565 2.1341 4.17565H3.03146C3.03191 4.17565 3.0324 4.17574 3.03289 4.17574C3.03325 4.17574 3.03361 4.17565 3.03393 4.17565H16.5078C16.5083 4.17565 16.5087 4.17574 16.5091 4.17574C16.5094 4.17574 16.5098 4.17565 16.5102 4.17565H19.0692C19.2552 4.17565 19.4061 4.02805 19.4061 3.84598C19.4061 3.66392 19.2552 3.51631 19.0692 3.51631H16.5561L12.6241 2.41702H19.5187C20.3237 2.41702 20.9787 3.0579 20.9787 3.84563V5.84149ZM22.326 14.615C22.326 14.7966 22.175 14.9445 21.9893 14.9445H17.4525L15.8803 12.6371L17.4525 10.3293H21.9893C21.994 10.3293 21.9986 10.3288 22.0033 10.3286C22.1163 10.327 22.2248 10.3074 22.326 10.2723V14.615ZM21.9893 9.6696C21.987 9.6696 21.9847 9.6699 21.9823 9.66995H21.6526V9.01061H21.9893C22.175 9.01061 22.326 9.15843 22.326 9.3401C22.326 9.52177 22.175 9.6696 21.9893 9.6696Z" fill="white"/>
<path d="M1.23535 5.04376e-07C0.554155 5.04376e-07 -3.1805e-07 0.542282 -3.1805e-07 1.20883C-3.1805e-07 1.87537 0.554155 2.41761 1.23535 2.41761C1.91654 2.41761 2.4707 1.87537 2.4707 1.20883C2.4707 0.542282 1.91654 5.04376e-07 1.23535 5.04376e-07ZM1.23535 1.75828C0.925703 1.75828 0.673827 1.51182 0.673827 1.20883C0.673827 0.90584 0.925703 0.659337 1.23535 0.659337C1.54499 0.659337 1.79687 0.90584 1.79687 1.20883C1.79687 1.51182 1.54499 1.75828 1.23535 1.75828Z" transform="translate(17.3846 11.4282)" fill="white"/>
</svg>
