<svg width="36" height="36" viewBox="0 0 36 36" fill="none" xmlns="http://www.w3.org/2000/svg">
<path d="M3.31384 0.444521C2.95403 0.162414 2.51098 -6.51874e-07 2.04988 -6.51874e-07C0.919243 -6.51874e-07 1.4049e-07 0.920716 1.4049e-07 2.05209C1.4049e-07 2.70764 0.316358 3.31237 0.830118 3.69281C1.25659 2.47231 2.1217 1.36376 3.31384 0.444521Z" transform="translate(5.92944 15.7095)" fill="#657CB7"/>
<path d="M1.53355 3.06488C2.37803 3.06488 3.06488 2.37729 3.06488 1.53207C3.06488 0.686854 2.37803 2.8098e-08 1.53355 2.8098e-08C0.688328 2.8098e-08 -1.34871e-07 0.686854 -1.34871e-07 1.53207C-1.34871e-07 2.37729 0.688328 3.06488 1.53355 3.06488Z" transform="translate(25.2585 8.02637)" fill="#657CB7"/>
<path d="M18 0C8.05921 0 0 8.05921 0 18C0 27.9408 8.05921 36 18 36C27.9408 36 36 27.9408 36 18C36 8.05921 27.9408 0 18 0ZM29.3631 20.2679C29.4114 20.5515 29.4423 20.8384 29.4423 21.1312C29.4423 25.344 24.2855 28.7709 17.9466 28.7709C11.608 28.7709 6.45201 25.344 6.45201 21.1312C6.45201 20.8203 6.4881 20.5161 6.54261 20.2156C5.67787 19.7085 5.13133 18.7797 5.13133 17.7621C5.13133 16.1902 6.40892 14.9127 7.97966 14.9127C8.69745 14.9127 9.38099 15.1981 9.90543 15.6816C11.9332 14.3595 14.6924 13.5353 17.7381 13.4984L19.5114 7.8898C19.5748 7.68982 19.7818 7.57271 19.984 7.62132L24.6258 8.71403C24.9654 7.84708 25.8058 7.22946 26.7925 7.22946C28.0767 7.22946 29.1222 8.27466 29.1222 9.55924C29.1222 10.8438 28.0767 11.8898 26.7925 11.8898C25.5072 11.8898 24.462 10.8438 24.462 9.55924C24.462 9.53751 24.4675 9.51836 24.4682 9.49663L20.1618 8.48237L18.5708 13.5124C21.4833 13.6167 24.1139 14.4361 26.0566 15.7221C26.5848 15.2121 27.2753 14.9123 28.0203 14.9123C29.5914 14.9123 30.8701 16.1906 30.8701 17.7621C30.869 18.8279 30.2857 19.7759 29.3631 20.2679Z" fill="#657CB7"/>
<path d="M5.39482e-07 1.69596C5.39482e-07 0.76088 0.76088 -6.96831e-07 1.69596 -6.96831e-07C2.63104 -6.96831e-07 3.39155 0.76088 3.39155 1.69596C3.39155 2.63104 2.63141 3.39155 1.69596 3.39155C0.760512 3.39155 5.39482e-07 2.63104 5.39482e-07 1.69596ZM9.7165 6.72381C8.86208 7.57897 7.52041 7.99403 5.61563 7.99403C5.61121 7.99403 5.60716 7.99071 5.60201 7.99071C5.59685 7.99071 5.5928 7.99403 5.58764 7.99403C3.68286 7.99403 2.34157 7.57897 1.48677 6.72381C1.33136 6.56839 1.33136 6.31611 1.48677 6.15996C1.64293 6.00454 1.8952 6.00454 2.05136 6.15996C2.74852 6.85786 3.90494 7.19632 5.58764 7.19632C5.5928 7.19632 5.59685 7.19926 5.60201 7.19926C5.60716 7.19926 5.61121 7.19632 5.61563 7.19632C7.2987 7.19632 8.45549 6.8575 9.15265 6.15996C9.30881 6.00454 9.56108 6.00454 9.71724 6.15996C9.87265 6.31611 9.87265 6.56876 9.7165 6.72381ZM9.51431 3.39155C8.57997 3.39155 7.81872 2.63178 7.81872 1.69596C7.81872 0.760144 8.57923 -6.96831e-07 9.51431 -6.96831e-07C10.4494 -6.96831e-07 11.2099 0.76088 11.2099 1.69596C11.2099 2.63104 10.4494 3.39155 9.51431 3.39155Z" transform="translate(12.3981 18.022)" fill="#657CB7"/>
<path d="M1.31478 -6.51874e-07C0.825699 -6.51874e-07 0.366814 0.17641 7.86745e-07 0.483561C1.18478 1.41017 2.03994 2.52608 2.45279 3.75321C3.01663 3.37792 3.36614 2.75073 3.36614 2.05209C3.36614 0.920716 2.4469 -6.51874e-07 1.31478 -6.51874e-07Z" transform="translate(26.7045 15.7095)" fill="#657CB7"/>
</svg>
