<svg width="18" height="16" viewBox="0 0 18 16" fill="none" xmlns="http://www.w3.org/2000/svg">
<path d="M16.928 6.34616L2.40516 0.138186C1.79334 -0.123374 1.10213 -0.00831234 0.601328 0.438317C0.100527 0.885019 -0.108934 1.57329 0.0547532 2.23451L1.34741 7.45673H7.67646C7.9677 7.45673 8.20384 7.69996 8.20384 8.00002C8.20384 8.30004 7.96773 8.54331 7.67646 8.54331H1.34741L0.0547532 13.7655C-0.108934 14.4268 0.100491 15.115 0.601328 15.5617C1.10315 16.0092 1.79443 16.1229 2.4052 15.8618L16.928 9.65388C17.5893 9.37124 18 8.73751 18 8.00002C18 7.26253 17.5893 6.62877 16.928 6.34616Z" fill="#F1F8FF"/>
</svg>
