<svg width="33" height="29" viewBox="0 0 33 29" fill="none" xmlns="http://www.w3.org/2000/svg">
<path d="M14.7554 15.3533C15.3058 14.0409 15.7724 13.0113 16.1553 12.2647C16.4425 11.7108 16.712 11.2442 16.9633 10.8648C17.2144 10.4855 17.5197 10.1152 17.8786 9.75402C18.2379 9.39271 18.6506 9.12149 19.1175 8.94105C19.584 8.76043 20.1044 8.67009 20.6791 8.67009H25.2741V12.1382C25.2741 12.2947 25.3309 12.4303 25.4445 12.5446C25.5581 12.659 25.6927 12.7161 25.8481 12.7161C26.0159 12.7161 26.1536 12.6621 26.2607 12.5537L32.0051 6.77375C32.1131 6.66525 32.1668 6.52695 32.1668 6.35829C32.1668 6.18962 32.1131 6.05126 32.0051 5.94238L26.2788 0.180245C26.1356 0.0599128 25.9914 -4.44066e-08 25.848 -4.44066e-08C25.6802 -4.44066e-08 25.5429 0.0540924 25.435 0.162593C25.3278 0.270968 25.274 0.40933 25.274 0.577934V4.04579H20.6791C19.8651 4.04579 19.0993 4.14537 18.3811 4.34403C17.663 4.54268 17.0256 4.79543 16.4693 5.10265C15.9127 5.40974 15.3743 5.82211 14.8536 6.34C14.3331 6.85764 13.8902 7.35757 13.5254 7.83922C13.1605 8.32073 12.7774 8.92277 12.3766 9.64539C11.9758 10.3679 11.6527 11.0002 11.4074 11.542C11.162 12.0839 10.8658 12.7523 10.5188 13.5471C9.96827 14.8596 9.50157 15.8893 9.11868 16.6358C8.83154 17.1897 8.56207 17.6564 8.31096 18.0357C8.05972 18.4151 7.75435 18.7853 7.39541 19.1465C7.03635 19.508 6.62347 19.7791 6.15677 19.9597C5.69019 20.1403 5.16948 20.2307 4.59514 20.2307H0.574338C0.406721 20.2307 0.26903 20.2844 0.161456 20.3931C0.0540073 20.5013 0 20.6395 0 20.8083V24.2767C0 24.4452 0.0541959 24.5837 0.161896 24.6924C0.269659 24.8007 0.407412 24.8548 0.574778 24.8548H4.59571C5.40965 24.8548 6.17538 24.7552 6.8935 24.5564C7.6115 24.3576 8.2489 24.1048 8.8052 23.7978C9.3618 23.4906 9.90024 23.0781 10.4208 22.5602C10.9413 22.0427 11.3843 21.5426 11.7492 21.0612C12.114 20.5794 12.497 19.9775 12.8979 19.255C13.2987 18.5323 13.622 17.9001 13.8672 17.3584C14.1123 16.8165 14.4084 16.1483 14.7554 15.3533Z" transform="translate(0.000976562)" fill="white"/>
<path d="M0.574338 4.62373H4.59527C5.12183 4.62373 5.6094 4.7111 6.05824 4.88584C6.50709 5.06058 6.88401 5.27119 7.18913 5.51818C7.49431 5.76517 7.79943 6.10522 8.10461 6.53866C8.40973 6.97235 8.6521 7.35479 8.8316 7.68573C9.01098 8.01699 9.23235 8.45359 9.49566 8.9954C10.4173 6.81583 11.2368 5.17211 11.9549 4.06427C10.0402 1.3549 7.58698 -1.69904e-07 4.59521 -1.69904e-07H0.574338C0.406721 -1.69904e-07 0.26903 0.0540922 0.161456 0.162593C0.0540073 0.270841 0 0.409204 0 0.577871V4.04598C0 4.21471 0.0537558 4.35288 0.161456 4.4612C0.269282 4.5697 0.406972 4.62373 0.574338 4.62373Z" transform="translate(0 4.04614)" fill="white"/>
<path d="M12.9423 0.506C12.7985 0.385668 12.6548 0.325883 12.5111 0.325883C12.3437 0.325883 12.206 0.379784 12.0984 0.488222C11.9909 0.59647 11.9371 0.735024 11.9371 0.903437V4.37186H7.34172C6.81498 4.37186 6.32746 4.28437 5.87862 4.1095C5.42977 3.93495 5.05279 3.72434 4.74774 3.47728C4.44287 3.23048 4.13756 2.89018 3.83244 2.45649C3.52713 2.02299 3.28464 1.64048 3.1052 1.30916C2.92589 0.978534 2.70451 0.54143 2.4412 3.55253e-07C1.51981 2.16743 0.706181 3.81114 -2.76294e-07 4.93113C0.322975 5.40069 0.658084 5.8192 1.00514 6.1862C1.35207 6.5534 1.68127 6.87555 1.99236 7.15265C2.30351 7.42938 2.65654 7.67055 3.05138 7.8749C3.4464 8.07969 3.79327 8.2512 4.09273 8.38982C4.3927 8.52831 4.76924 8.63965 5.2238 8.72405C5.67843 8.80807 6.06139 8.87171 6.37254 8.91328C6.68363 8.95529 7.10859 8.98559 7.64709 9.00381C8.1854 9.02197 8.62224 9.0276 8.95697 9.02197C9.29239 9.0159 9.77714 9.00944 10.4115 9.00381C11.0458 8.99793 11.5544 8.9947 11.9374 8.9947V12.4629C11.9374 12.6194 11.9942 12.7549 12.1078 12.8692C12.2214 12.9836 12.3561 13.0407 12.5115 13.0407C12.6793 13.0407 12.8169 12.9867 12.9241 12.8784L18.6684 7.09856C18.776 6.98987 18.8297 6.85176 18.8297 6.6829C18.8297 6.51424 18.776 6.37587 18.668 6.26769L12.9423 0.506Z" transform="translate(13.3374 15.8594)" fill="white"/>
</svg>
