<svg width="64" height="64" viewBox="0 0 64 64" fill="none" xmlns="http://www.w3.org/2000/svg">
<rect width="64" height="64" rx="20" fill="#947CB0"/>
<path d="M14.9447 0.374209C14.5199 -0.0598674 13.8532 -0.123877 13.3567 0.221915C11.4863 1.52497 2.10484 8.07739 1.09659 9.10786C-0.365531 10.6024 -0.365531 13.034 1.09659 14.5285C1.82766 15.2756 2.78803 15.6493 3.74828 15.6493C4.70853 15.6493 5.66884 15.2756 6.39997 14.5285C7.40816 13.4979 13.8188 3.90904 15.0937 1.99732C15.4319 1.4899 15.3693 0.808413 14.9447 0.374209ZM4.63209 12.7216C4.14478 13.2198 3.35172 13.2198 2.86441 12.7216C2.37703 12.2235 2.37697 11.4132 2.86416 10.915C3.25591 10.5193 5.91947 8.57771 9.19659 6.24941C6.91872 9.59899 5.01909 12.3213 4.63209 12.7216Z" transform="translate(35.7482 23.5356) scale(-1 1)" fill="white"/>
<path d="M5.76444 22.2963L4.22131 23.0657C3.09219 21.006 2.5 18.7071 2.5 16.3537C2.5 14.6295 2.81106 12.9781 3.37875 11.4551L5.14694 12.322C5.32131 12.4074 5.50537 12.4479 5.68669 12.4479C6.1525 12.4479 6.59969 12.1806 6.81462 11.7226C7.11312 11.0864 6.85062 10.3232 6.22812 10.018L4.48237 9.16211C6.65219 5.54513 10.4064 3.0234 14.7501 2.61391V4.53554C14.7501 5.24118 15.3097 5.81318 16.0001 5.81318C16.6904 5.81318 17.2501 5.24118 17.2501 4.53554V2.61296C18.7393 2.75151 20.1803 3.13915 21.5482 3.7703C22.1773 4.06064 22.9177 3.77452 23.2018 3.13155C23.4859 2.48839 23.2061 1.73171 22.5768 1.44136C20.5039 0.48499 18.2912 3.50913e-08 16 3.50913e-08C11.7262 3.50913e-08 7.70831 1.70104 4.68625 4.78985C1.66431 7.87873 0 11.9855 0 16.3537C0 19.5817 0.937375 22.7211 2.71081 25.4323C2.94969 25.7974 3.34462 25.9999 3.75075 25.9999C3.93537 25.9999 4.12237 25.9581 4.29806 25.8705L6.86056 24.5929C7.48106 24.2835 7.73869 23.5186 7.436 22.8844C7.13331 22.2503 6.38494 21.987 5.76444 22.2963Z" transform="translate(48 19) scale(-1 1)" fill="white"/>
<path d="M6.21509 0.752343C5.93109 0.109245 5.1909 -0.176945 4.56147 0.113525C3.93228 0.403868 3.65247 1.16055 3.93653 1.80364C4.7254 3.58965 5.12534 5.49761 5.12534 7.47449C5.12534 9.83134 4.53122 12.134 3.39878 14.196L1.78772 13.4119C1.16453 13.1085 0.41859 13.379 0.121715 14.0161C-0.175098 14.6531 0.0895907 15.4156 0.712903 15.7189L3.3379 16.9966C3.51059 17.0806 3.69365 17.1208 3.87465 17.1208C4.2809 17.1208 4.6759 16.9179 4.91447 16.5531C6.68797 13.8418 7.62534 10.7024 7.62534 7.47449C7.62534 5.13265 7.15084 2.87098 6.21509 0.752343Z" transform="translate(23.6254 27.8792) scale(-1 1)" fill="white"/>
</svg>
