<svg width="24" height="24" viewBox="0 0 24 24" fill="none" xmlns="http://www.w3.org/2000/svg">
<path d="M23.1811 18.6609C23.1811 18.6609 23.181 18.6608 23.1809 18.6608L23.1805 18.6611L18.0963 13.5751C17.9403 13.4191 17.6874 13.4191 17.5314 13.5751L16.4002 14.7071L14.9877 13.2942L16.4433 11.8396C18.449 12.2896 20.5456 11.6841 22.0029 10.2341C23.6312 8.59301 24.1782 6.16511 23.411 3.98396C23.3652 3.85484 23.2566 3.75819 23.123 3.72782C22.9893 3.6981 22.8497 3.73826 22.7523 3.83451L19.9162 6.66925L17.7991 5.96317L17.0932 3.8453L19.927 1.00817C20.0828 0.851974 20.0826 0.598929 19.9264 0.443037C19.8844 0.401079 19.8335 0.369061 19.7776 0.349231C16.6603 -0.761697 13.2329 0.86571 12.1224 3.98406C11.7415 5.05353 11.6721 6.20922 11.9223 7.3166L10.4683 8.77273L5.37642 3.67547L5.21663 1.95281C5.2034 1.81001 5.11467 1.68528 4.98415 1.62594L1.87719 0.215366C1.72595 0.146286 1.54779 0.178104 1.4298 0.295286L0.303336 1.42215C0.186196 1.54018 0.154389 1.7184 0.223445 1.8697L1.63352 4.97856C1.69279 5.10938 1.81767 5.19834 1.96068 5.21152L3.68273 5.37136L8.77658 10.465L0.817435 18.4262C-0.272478 19.5195 -0.272478 21.2889 0.817435 22.3822L1.38067 22.9456C2.47368 24.0357 4.24226 24.0357 5.33527 22.9456L13.2964 14.9861L14.7089 16.3986L13.5772 17.5311C13.4213 17.6871 13.4213 17.9401 13.5772 18.0961L18.6615 23.1818C19.7542 24.2727 21.5234 24.2727 22.6161 23.1818L23.1809 22.6168C24.2729 21.5245 24.273 19.7533 23.1811 18.6609ZM4.1437 4.70404C4.07779 4.63805 3.99091 4.59719 3.89803 4.58855L2.26346 4.4383L1.0651 1.79297L1.80009 1.05732L4.44449 2.25611L4.59508 3.89086C4.60362 3.98371 4.64431 4.07063 4.71012 4.13661L9.90304 9.33616L9.34101 9.89839L4.1437 4.70404ZM4.77204 22.3822C3.99101 23.1618 2.72653 23.1618 1.9455 22.3822L1.38226 21.8188C0.602928 21.0375 0.602928 19.7725 1.38226 18.9912L12.6469 7.72259C12.7479 7.62164 12.7873 7.47449 12.7504 7.33658C12.0158 4.55828 13.6717 1.71031 16.449 0.975449C17.2441 0.765062 18.0778 0.746281 18.8816 0.920655L16.353 3.4533C16.246 3.56044 16.2087 3.71888 16.2568 3.86249L17.1036 6.40392C17.1435 6.5232 17.2371 6.61681 17.3565 6.65647L19.897 7.50321C20.0403 7.55101 20.1982 7.5139 20.3053 7.40731L22.8374 4.87786C23.4542 7.67833 21.6848 10.4488 18.8853 11.0658C18.072 11.2451 17.2277 11.226 16.4233 11.0101C16.2856 10.9725 16.1383 11.0121 16.0379 11.1136L4.77204 22.3822ZM13.8612 14.421L14.315 13.9671L14.4229 13.8592L15.8369 15.2722L15.2737 15.8356L13.8612 14.421ZM22.6157 22.0517V22.0533L22.0509 22.6168C21.2703 23.3957 20.0069 23.3957 19.2263 22.6168L14.4245 17.8136L17.8139 14.4226L22.6157 19.2262C23.3957 20.0064 23.3957 21.2715 22.6157 22.0517Z" fill="white"/>
</svg>
