<svg width="18" height="15" viewBox="0 0 18 15" fill="none" xmlns="http://www.w3.org/2000/svg">
<path d="M0.314345 7.19245L4.4151 8.67407L6.00234 13.6155C6.10391 13.932 6.50368 14.049 6.76903 13.839L9.05486 12.0351C9.29447 11.8461 9.63575 11.8366 9.88616 12.0126L14.009 14.9102C14.2928 15.1099 14.695 14.9594 14.7662 14.6273L17.7864 0.563905C17.8641 0.201194 17.4959 -0.10139 17.1392 0.0321859L0.30954 6.31708C-0.10578 6.47214 -0.102161 7.04136 0.314345 7.19245ZM5.74654 7.88536L13.761 3.10701C13.905 3.02139 14.0532 3.20992 13.9295 3.32099L7.31528 9.27275C7.08279 9.48224 6.93282 9.7626 6.89035 10.0669L6.66504 11.6833C6.6352 11.8991 6.32204 11.9205 6.26052 11.7116L5.39399 8.76417C5.29474 8.42799 5.43937 8.0689 5.74654 7.88536Z" fill="#59A8E4"/>
</svg>
