<svg width="24" height="28" viewBox="0 0 24 28" fill="none" xmlns="http://www.w3.org/2000/svg">
<path d="M23.6253 8.31239C23.3754 7.72913 23.0756 7.2675 22.7254 6.92718L16.8753 1.23944C16.5251 0.899442 16.0504 0.607652 15.4504 0.364451C14.8506 0.121505 14.3006 0 13.8008 0H1.79992C1.30001 0 0.874973 0.17003 0.524997 0.510346C0.174955 0.85047 9.41978e-08 1.2637 9.41978e-08 1.74991V26.25C9.41978e-08 26.7364 0.174955 27.1496 0.524997 27.4898C0.875039 27.8298 1.30001 28 1.79999 28H22.2005C22.7003 28 23.1251 27.8298 23.475 27.4898C23.8249 27.1493 24 26.7364 24 26.25V9.9166C24.0002 9.43045 23.8752 8.89565 23.6253 8.31239ZM14.4003 2.47901C14.7626 2.60051 15.0188 2.73434 15.169 2.87998L21.038 8.58592C21.1876 8.73187 21.3252 8.98089 21.4501 9.33333H14.4003V2.47901ZM21.6003 25.6668H2.39992V2.33337H12V9.91679C12 10.4029 12.1748 10.816 12.5249 11.1564C12.875 11.4965 13.2998 11.6668 13.8001 11.6668H21.6003V25.6668Z" transform="translate(0.00012207 -0.000488281)" fill="#F1F8FF"/>
<path d="M13.8004 7.01467e-07H0.599931C0.425041 7.01467e-07 0.281216 0.0545903 0.168651 0.163836C0.0564141 0.273082 1.40295e-07 0.412913 1.40295e-07 0.582879V1.74966C1.40295e-07 1.92013 0.056217 2.0599 0.168651 2.16915C0.281281 2.27839 0.425107 2.33305 0.599931 2.33305H13.8004C13.9753 2.33305 14.1192 2.27839 14.2315 2.16915C14.3438 2.0599 14.4 1.92013 14.4 1.74966V0.582879C14.4 0.412913 14.3438 0.273018 14.2315 0.163836C14.1188 0.0548457 13.975 7.01467e-07 13.8004 7.01467e-07Z" transform="translate(4.80017 18.666)" fill="#F1F8FF"/>
<path d="M0.168651 0.163709C0.0564141 0.273018 1.7637e-07 0.412784 1.7637e-07 0.583261V1.74985C1.7637e-07 1.92007 0.0562171 2.0599 0.168651 2.16915C0.281282 2.27839 0.425107 2.33298 0.599931 2.33298H13.8004C13.9753 2.33298 14.1192 2.27839 14.2315 2.16915C14.3438 2.0599 14.4 1.92007 14.4 1.74985V0.583261C14.4 0.413231 14.3438 0.273338 14.2315 0.163709C14.1188 0.0545906 13.975 -1.09117e-07 13.8004 -1.09117e-07H0.599931C0.425107 -1.09117e-07 0.281282 0.0545906 0.168651 0.163709Z" transform="translate(4.80017 13.9995)" fill="#F1F8FF"/>
</svg>
