<svg width="47" height="31" viewBox="0 0 47 31" fill="none" xmlns="http://www.w3.org/2000/svg">
<path d="M43.48 9.0245e-08H3.51995C1.57588 9.0245e-08 0 1.58642 0 3.5435V27.4556C0 29.4126 1.57588 30.9991 3.51995 30.9991H43.48C45.424 30.9991 47 29.4127 47 27.4556V3.5435C47 1.58642 45.4241 9.0245e-08 43.48 9.0245e-08Z" transform="translate(0 0.00100708)" fill="#41479B"/>
<path d="M46.9513 2.95779C46.6738 1.27971 45.2257 1.41008e-07 43.48 1.41008e-07H42.5642L27.5517 9.90155V9.25011e-05H19.4483V9.90164L4.43581 9.25011e-05H3.51995C1.77425 9.25011e-05 0.326154 1.27971 0.0487441 2.95789L12.8799 11.4209H0V19.5785H12.8799L0.0487441 28.0413C0.326154 29.7194 1.77425 30.9991 3.51995 30.9991H4.43581L19.4483 21.0976V30.9991H27.5517V21.0976L42.5642 30.9991H43.48C45.2257 30.9991 46.6738 29.7195 46.9513 28.0413L34.1201 19.5784H47V11.4207H34.1201L46.9513 2.95779Z" fill="#F5F5F5"/>
<path d="M25.9311 9.0245e-08H21.0689V13.0522H0V17.9468H21.0689V30.999H25.9311V17.9468H47V13.0522H25.9311V9.0245e-08Z" transform="translate(0 0.00100708)" fill="#FF4B55"/>
<path d="M1.42919 11.1923L18.5569 4.51225e-08H15.5801L-2.10106e-09 10.1811C0.381232 10.629 0.871152 10.98 1.42919 11.1923Z" transform="translate(0.846924 19.5785)" fill="#FF4B55"/>
<path d="M2.97679 4.51225e-08H-7.84397e-07L16.5892 10.8403C17.0534 10.5334 17.4408 10.1188 17.7171 9.63199L2.97679 4.51225e-08Z" transform="translate(28.8206 19.5785)" fill="#FF4B55"/>
<path d="M-1.96099e-08 1.25984L14.4791 10.7215H17.4559L1.04887 2.65095e-07C0.608338 0.330092 0.247852 0.76165 -1.96099e-08 1.25984Z" transform="translate(0.371582 0.69928)" fill="#FF4B55"/>
<path d="M2.97679 11.2034L18.5855 1.00358C18.2 0.557145 17.7062 0.208202 17.1444 -1.01526e-07L4.48227e-08 11.2034H2.97679Z" transform="translate(27.5518 0.217346)" fill="#FF4B55"/>
</svg>
