<svg width="32" height="26" viewBox="0 0 32 26" fill="none" xmlns="http://www.w3.org/2000/svg">
<path d="M30.4762 8.88555V4.74449C30.4762 2.08754 28.381 7.32223e-08 25.7143 7.32223e-08H4.76191C2.0952 0.000109135 0 2.08765 0 4.7446V21.2555C0 23.9125 2.0952 26 4.76191 26H25.7143C28.381 26 30.4762 23.9125 30.4762 21.2555V17.3043C31.3733 16.7141 32 15.7045 32 14.6132V11.5767C32 10.4835 31.3733 9.47579 30.4762 8.88555ZM30.0953 14.6131C30.0953 15.3722 29.5239 15.9416 28.7619 15.9416H19.0476C18.2858 15.9416 17.7143 15.3723 17.7143 14.6131V11.5766C17.7143 10.8176 18.2857 10.2482 19.0476 10.2482H28.7619C29.5238 10.2482 30.0953 10.8175 30.0953 11.5766V14.6131ZM25.7143 24.1021H4.76191C3.23809 24.1021 1.90474 22.7736 1.90474 21.2554V4.7446C1.90474 3.22636 3.23809 1.89789 4.76191 1.89789H25.7143C27.2381 1.89789 28.5714 3.22636 28.5714 4.7446V8.35039H19.0476C17.3334 8.35039 15.8095 9.86863 15.8095 11.5766V14.6131C15.8095 16.3211 17.3334 17.8394 19.0476 17.8394H28.5714V21.2554C28.5714 22.7736 27.2381 24.1021 25.7143 24.1021Z" fill="white"/>
<path d="M0.190463 0.284649C-1.1744e-07 0.474416 -7.21549e-07 0.85395 -7.21549e-07 1.04372C-7.21549e-07 1.23348 -1.1744e-07 1.42325 0.190463 1.61302C0.380926 1.80278 0.761853 1.99255 0.952316 1.99255C1.14278 1.99255 1.33324 1.80278 1.52371 1.61302C1.71417 1.61302 1.90463 1.23348 1.90463 1.04372C1.90463 0.664184 1.71417 0.474416 1.52371 0.284649C1.14289 -0.0948839 0.571389 -0.0948839 0.190463 0.284649Z" transform="translate(19.0476 12.051)" fill="white"/>
</svg>
