<svg width="416" height="477" viewBox="0 0 416 477" fill="none" xmlns="http://www.w3.org/2000/svg">
<g filter="url(#filter0_d)">
<mask id="mask0" mask-type="alpha" maskUnits="userSpaceOnUse" x="10" y="10" width="396" height="457">
<rect width="396" height="457" rx="32" transform="translate(10 10)" fill="#D7DFE9"/>
</mask>
<g mask="url(#mask0)">
<ellipse cx="598" cy="581.46" rx="598" ry="581.46" transform="translate(-382 -463)" fill="#2F80ED" fill-opacity="0.23"/>
<ellipse cx="30" cy="29.1702" rx="30" ry="29.1702" transform="translate(178 -10.8618)" fill="#2F80ED" fill-opacity="0.23"/>
<ellipse cx="298.5" cy="290.244" rx="298.5" ry="290.244" transform="translate(-83 -200.468)" fill="#2F80ED" fill-opacity="0.23"/>
<ellipse cx="167" cy="162.381" rx="167" ry="162.381" transform="translate(41 -101.289)" fill="#2F80ED" fill-opacity="0.23"/>
<ellipse cx="73.5" cy="71.467" rx="73.5" ry="71.467" transform="translate(134 -45.866)" fill="#2F80ED" fill-opacity="0.23"/>
<ellipse cx="392" cy="381.157" rx="392" ry="381.157" transform="translate(-176 -226.721)" fill="#2F80ED" fill-opacity="0.23"/>
<ellipse cx="115.5" cy="112.305" rx="115.5" ry="112.305" transform="translate(92 -57.5342)" fill="#2F80ED" fill-opacity="0.23"/>
<ellipse cx="223.5" cy="217.318" rx="223.5" ry="217.318" transform="translate(-16 -131.432)" fill="#2F80ED" fill-opacity="0.23"/>
<ellipse cx="371.5" cy="361.224" rx="371.5" ry="361.224" transform="translate(-156 -258.809)" fill="#2F80ED" fill-opacity="0.23"/>
</g>
</g>
<defs>
<filter id="filter0_d" x="0" y="0" width="416" height="477" filterUnits="userSpaceOnUse" color-interpolation-filters="sRGB">
<feFlood flood-opacity="0" result="BackgroundImageFix"/>
<feColorMatrix in="SourceAlpha" type="matrix" values="0 0 0 0 0 0 0 0 0 0 0 0 0 0 0 0 0 0 255 0"/>
<feOffset/>
<feGaussianBlur stdDeviation="5"/>
<feColorMatrix type="matrix" values="0 0 0 0 0.878431 0 0 0 0 0.878431 0 0 0 0 0.878431 0 0 0 1 0"/>
<feBlend mode="overlay" in2="BackgroundImageFix" result="effect1_dropShadow"/>
<feBlend mode="normal" in="SourceGraphic" in2="effect1_dropShadow" result="shape"/>
</filter>
</defs>
</svg>
